<?xml version="1.0" encoding="utf-8"?>
<!-- Generator: Adobe Illustrator 23.0.0, SVG Export Plug-In . SVG Version: 6.00 Build 0)  -->
<svg version="1.1" id="Layer_1" xmlns="http://www.w3.org/2000/svg" xmlns:xlink="http://www.w3.org/1999/xlink" x="0px" y="0px"
	 viewBox="0 0 595.28 841.89" style="enable-background:new 0 0 595.28 841.89;" xml:space="preserve">
<style type="text/css">
	.st0{fill:#262626;}
	.st1{fill:url(#SVGID_1_);}
	.st2{fill:url(#SVGID_2_);}
	.st3{fill:url(#SVGID_3_);}
	.st4{fill:url(#SVGID_4_);}
	.st5{fill:url(#SVGID_5_);}
	.st6{fill:url(#SVGID_6_);}
	.st7{fill:url(#SVGID_7_);}
	.st8{fill:url(#SVGID_8_);}
	.st9{fill:#1A1A1A;}
	.st10{fill:url(#SVGID_9_);}
	.st11{fill:url(#SVGID_10_);}
	.st12{fill:url(#SVGID_11_);}
	.st13{fill:url(#SVGID_12_);}
	.st14{fill:url(#SVGID_13_);}
	.st15{fill:none;}
	.st16{fill:url(#SVGID_14_);}
	.st17{fill:#FFFFFF;}
	.st18{fill:url(#SVGID_15_);}
	.st19{fill:url(#SVGID_16_);}
	.st20{fill:url(#SVGID_17_);}
	.st21{fill:url(#SVGID_18_);}
	.st22{fill:url(#SVGID_19_);}
	.st23{fill:url(#SVGID_20_);}
	.st24{fill:url(#SVGID_21_);}
	.st25{fill:url(#SVGID_22_);}
	.st26{fill:url(#SVGID_23_);}
	.st27{fill:url(#SVGID_24_);}
	.st28{fill:url(#SVGID_25_);}
	.st29{fill:url(#SVGID_26_);}
	.st30{fill:url(#SVGID_27_);}
	.st31{fill:url(#SVGID_28_);}
	.st32{fill:url(#SVGID_29_);}
	.st33{fill:url(#SVGID_30_);}
	.st34{fill:url(#SVGID_31_);}
	.st35{fill:url(#SVGID_32_);}
	.st36{fill:url(#SVGID_33_);}
	.st37{fill:url(#SVGID_34_);}
	.st38{fill:url(#SVGID_35_);}
	.st39{fill:url(#SVGID_36_);}
	.st40{fill:url(#SVGID_37_);}
	.st41{fill:url(#SVGID_38_);}
	.st42{fill:url(#SVGID_39_);}
	.st43{fill:url(#SVGID_40_);}
	.st44{fill:url(#SVGID_41_);}
	.st45{fill:url(#SVGID_42_);}
	.st46{fill:url(#SVGID_43_);}
	.st47{fill:url(#SVGID_44_);}
	.st48{fill:url(#SVGID_45_);}
	.st49{fill:url(#SVGID_46_);}
	.st50{fill:url(#SVGID_47_);}
	.st51{fill:url(#SVGID_48_);}
	.st52{fill:url(#SVGID_49_);}
	.st53{fill:url(#SVGID_50_);}
	.st54{fill:url(#SVGID_51_);}
	.st55{fill:url(#SVGID_52_);}
	.st56{fill:url(#SVGID_53_);}
	.st57{fill:url(#SVGID_54_);}
	.st58{fill:url(#SVGID_55_);}
	.st59{opacity:0.5;fill:url(#SVGID_56_);}
	.st60{opacity:0.5;fill:url(#SVGID_57_);}
	.st61{opacity:0.5;fill:url(#SVGID_58_);}
	.st62{opacity:0.5;fill:url(#SVGID_59_);}
	.st63{opacity:0.5;fill:url(#SVGID_60_);}
	.st64{opacity:0.5;fill:url(#SVGID_61_);}
	.st65{fill-rule:evenodd;clip-rule:evenodd;fill:url(#in_sf_base_3_);}
	.st66{fill-rule:evenodd;clip-rule:evenodd;fill:url(#in_sf_base_4_);}
	.st67{fill-rule:evenodd;clip-rule:evenodd;fill:url(#SVGID_62_);}
	.st68{fill-rule:evenodd;clip-rule:evenodd;fill:url(#out_sf_base_2_);}
	.st69{opacity:0.74;fill-rule:evenodd;clip-rule:evenodd;fill:url(#SVGID_63_);}
	.st70{fill-rule:evenodd;clip-rule:evenodd;fill:url(#in_up_right_2_);}
	.st71{fill-rule:evenodd;clip-rule:evenodd;fill:url(#SVGID_64_);}
	.st72{opacity:0.9;fill-rule:evenodd;clip-rule:evenodd;fill:url(#SVGID_65_);}
	.st73{opacity:0.2;fill-rule:evenodd;clip-rule:evenodd;fill:url(#SVGID_66_);}
	.st74{opacity:0.2;fill-rule:evenodd;clip-rule:evenodd;fill:url(#SVGID_67_);fill-opacity:0.42;}
	.st75{fill-rule:evenodd;clip-rule:evenodd;fill:url(#SVGID_68_);}
	.st76{opacity:0.9;fill-rule:evenodd;clip-rule:evenodd;fill:url(#SVGID_69_);}
	.st77{fill-rule:evenodd;clip-rule:evenodd;fill:url(#SVGID_70_);}
	.st78{fill-rule:evenodd;clip-rule:evenodd;fill:url(#SVGID_71_);}
	.st79{fill-rule:evenodd;clip-rule:evenodd;fill:url(#SVGID_72_);}
	.st80{fill-rule:evenodd;clip-rule:evenodd;fill:url(#SVGID_73_);}
	.st81{fill:url(#wing_low_sf_2_);}
	.st82{fill-rule:evenodd;clip-rule:evenodd;fill:url(#SVGID_74_);}
	.st83{fill-rule:evenodd;clip-rule:evenodd;fill:url(#SVGID_75_);}
	.st84{fill-rule:evenodd;clip-rule:evenodd;fill:url(#SVGID_76_);}
	.st85{fill-rule:evenodd;clip-rule:evenodd;fill:url(#SVGID_77_);}
	.st86{fill-rule:evenodd;clip-rule:evenodd;}
	.st87{fill:#666666;}
	.st88{fill-rule:evenodd;clip-rule:evenodd;fill:#FFFFFF;}
	.st89{fill-rule:evenodd;clip-rule:evenodd;fill:#CCCCCC;}
	.st90{fill:url(#SVGID_78_);}
	.st91{fill-rule:evenodd;clip-rule:evenodd;fill:url(#SVGID_79_);}
	.st92{fill:url(#SVGID_80_);}
	.st93{fill:#B3B3B3;}
	.st94{opacity:0.9;fill:url(#SVGID_81_);}
	.st95{fill:url(#SVGID_82_);}
	.st96{fill:#4D4D4D;}
	.st97{fill:url(#SVGID_83_);}
</style>
<g>
	<g id="script">
		<g>
			<g>
				<path d="M148.8,648.33l0-42.86c0-8.39-1.67-9.97-10.48-9.95L123,595.55l0,52.77H98.99l0-52.71l-25.68,0.06v52.65H49.42v-74.99
					l89.43-0.31c27.04-0.09,34.05,6.49,34.05,32.05l0,43.26H148.8z"/>
			</g>
			<path d="M514.47,571.71l-52.56,0.19l0.04,20.83l52.56-0.14c7.25-0.02,7.92,0.12,7.93,5.13l-38.03,0.09
				c-13.11,0.03-28.71,4.44-28.67,25.29c0.04,20.85,15.66,25.23,28.78,25.23l61.56,0l-0.12-49
				C545.91,576.64,540.18,571.62,514.47,571.71z M522.51,627.42l-38.03,0.04c-4.71,0-5.35-2.36-5.36-4.67
				c0-2.31,0.63-4.68,5.34-4.68l38.03-0.05L522.51,627.42z"/>
		</g>
		<path d="M385.66,594.56l23.05-0.06c20.41-0.05,22.34,2.72,22.34,15.67s-1.93,15.72-22.34,15.74l-23.05,0.02V594.56z M242,627.69
			l-38.06,0.04c-4.72,0-5.35-2.33-5.35-4.61c0-2.28,0.64-4.62,5.35-4.62l38.06-0.05V627.69z M411.13,572.07l-61.54,0.21
			l-84.05,58.55l0,0v0l0-30.9c0-22.39-5.73-27.34-31.47-27.25l-52.61,0.18v20.57l52.61-0.13c7.25-0.02,7.93,0.12,7.93,5.06
			l-38.06,0.09c-13.12,0.03-28.75,4.39-28.75,24.96c0,20.58,15.62,24.9,28.75,24.9l74.17,0l84.15-58.52v0v58.52h48.87
			c34.1,0,43.46-8.21,43.46-38.2C454.59,580.13,445.23,571.95,411.13,572.07z M339.74,572.32l-67.14,0.24v22.27l34.96-0.08
			L339.74,572.32z M287.91,648.33h67.23v-22.36L320.03,626L287.91,648.33z"/>
		<g>
			<g>
				<path class="st0" d="M149.34,647.79l0-42.32c0-8.75-1.85-10.51-11.02-10.49l-15.86,0.04v52.77l-22.94,0v-52.72l-26.76,0.07
					v52.65l-22.81,0l0-73.92l88.9-0.31c26.61-0.09,33.51,6.39,33.51,31.51l0,42.72L149.34,647.79z"/>
			</g>
			<path class="st0" d="M484.52,647.78c-18.45,0-28.21-8.53-28.24-24.68c-0.03-16.14,9.69-24.69,28.14-24.74l38.57-0.09l0-0.11
				c-0.01-5.97-0.73-6.14-8.47-6.12l-52.03,0.14l-0.04-19.74l52.02-0.18c25.4-0.09,30.91,4.71,30.96,27.06l0.12,48.45L484.52,647.78
				z M484.46,617.55c-4.02,0.01-5.88,1.67-5.87,5.23c0.01,3.57,1.88,5.22,5.9,5.22l38.57-0.04l-0.02-10.47L484.46,617.55z"/>
		</g>
		<path class="st0" d="M431.59,610.16c0-13.19-2.11-16.26-22.88-16.21l-23.59,0.06v32.47l23.59-0.02
			C429.48,626.44,431.59,623.35,431.59,610.16z M198.05,623.12c0,3.52,1.87,5.16,5.89,5.15l38.6-0.04V617.9l-38.6,0.05
			C199.93,617.96,198.05,619.6,198.05,623.12z M411.13,647.78l-48.33,0v-59.01l-84.85,59.01l-74,0c-18.46,0-28.21-8.42-28.21-24.36
			s9.75-24.38,28.21-24.42l38.6-0.09v-0.11c0-5.89-0.72-6.06-8.47-6.04L182,592.91v-19.49l52.07-0.18
			c25.43-0.09,30.92,4.66,30.92,26.72l0,31.92l84.76-59.04l61.37-0.21c33.84-0.12,42.92,7.8,42.92,37.5
			C454.05,639.83,444.98,647.78,411.13,647.78z M273.14,594.29V573.1l64.86-0.23l-30.61,21.33L273.14,594.29z M354.61,626.51v21.27
			l-64.96,0l30.56-21.24L354.61,626.51z"/>
		<g>
			<linearGradient id="SVGID_1_" gradientUnits="userSpaceOnUse" x1="504.2734" y1="646.675" x2="504.2734" y2="573.3607">
				<stop  offset="0.1" style="stop-color:#000000"/>
				<stop  offset="0.9" style="stop-color:#666666"/>
			</linearGradient>
			<path class="st1" d="M514.47,573.36l-50.38,0.18l4.03,4.1l46.36-0.15c21.19-0.07,25.78,3.81,25.82,21.85l0.1,43.21l4.06,4.13
				l-0.11-47.35C544.3,577.61,539.3,573.28,514.47,573.36z"/>
			<linearGradient id="SVGID_2_" gradientUnits="userSpaceOnUse" x1="500.8393" y1="646.713" x2="500.8393" y2="573.3606">
				<stop  offset="0.15" style="stop-color:#1A1A1A"/>
				<stop  offset="0.45" style="stop-color:#666666"/>
				<stop  offset="0.75" style="stop-color:#B3B3B3"/>
				<stop  offset="1" style="stop-color:#666666"/>
			</linearGradient>
			<path class="st2" d="M484.45,611.51c-7.27,0.01-11.78,4.33-11.76,11.28c0.01,6.95,4.54,11.26,11.81,11.25l44.51-0.03l-0.05-22.58
				L484.45,611.51z M484.48,629.11c-4.61,0-6.96-2.13-6.97-6.32c-0.01-4.19,2.33-6.33,6.95-6.33l39.65-0.06l0.03,12.68
				L484.48,629.11z"/>
			<linearGradient id="SVGID_3_" gradientUnits="userSpaceOnUse" x1="500.9065" y1="646.6798" x2="500.9065" y2="573.3607">
				<stop  offset="0.15" style="stop-color:#1A1A1A"/>
				<stop  offset="0.45" style="stop-color:#666666"/>
				<stop  offset="0.75" style="stop-color:#B3B3B3"/>
				<stop  offset="1" style="stop-color:#666666"/>
			</linearGradient>
			<path class="st3" d="M544.35,599.33c-0.05-21.72-5.05-26.05-29.88-25.96l-50.95,0.18l0.04,17.55l50.95-0.14
				c8.51-0.02,9.54,0.75,9.55,7.21l0,1.21l-39.65,0.09c-17.98,0.04-27.1,8.01-27.07,23.64c0.03,15.63,9.19,23.58,27.17,23.58
				l59.94,0L544.35,599.33z M484.51,641.74c-15.3,0-22.31-5.85-22.34-18.64c-0.03-12.79,6.96-18.66,22.26-18.69l44.5-0.09
				l-0.01-6.16c-0.03-11.32-5.99-12.17-14.42-12.15l-46.13,0.13l-0.02-7.68l46.13-0.15c20.79-0.07,24.97,3.44,25.01,21.03l0.1,42.38
				L484.51,641.74z"/>
			<linearGradient id="SVGID_4_" gradientUnits="userSpaceOnUse" x1="111.1548" y1="646.7129" x2="111.1548" y2="573.3607">
				<stop  offset="0.15" style="stop-color:#1A1A1A"/>
				<stop  offset="0.45" style="stop-color:#666666"/>
				<stop  offset="0.75" style="stop-color:#B3B3B3"/>
				<stop  offset="1" style="stop-color:#666666"/>
			</linearGradient>
			<path class="st4" d="M138.85,574.64l-87.83,0.3l0,71.77l20.67,0v-52.65l28.9-0.07l0,52.72l20.79,0v-52.77l16.94-0.04
				c9.74-0.02,12.1,2.23,12.1,11.57l0,41.24l20.86,0v-41.63C171.28,580.54,164.89,574.55,138.85,574.64z M155.29,641.84l0-36.38
				c0-12.01-4.6-16.46-16.96-16.42l-21.79,0.06v52.76l-11.1,0v-52.73l-38.57,0.11v52.64l-11.02,0v-62.09l83.01-0.26
				c22.13-0.07,27.56,4.96,27.56,25.57l0,36.75L155.29,641.84z"/>
			<linearGradient id="SVGID_5_" gradientUnits="userSpaceOnUse" x1="111.1549" y1="646.7054" x2="111.1549" y2="574.6421">
				<stop  offset="0.1" style="stop-color:#000000"/>
				<stop  offset="0.9" style="stop-color:#666666"/>
			</linearGradient>
			<path class="st5" d="M138.85,574.64l-87.83,0.3l4.02,4.02l83.81-0.27c22.53-0.07,28.37,5.35,28.37,26.38l0,37.57l-12.75,0
				l-4.05,4.06l20.86,0l0-41.63C171.28,580.54,164.89,574.55,138.85,574.64z"/>
			<linearGradient id="SVGID_6_" gradientUnits="userSpaceOnUse" x1="135.9102" y1="646.7054" x2="135.9102" y2="589.8423">
				<stop  offset="0.1" style="stop-color:#1A1A1A"/>
				<stop  offset="0.5" style="stop-color:#4D4D4D"/>
				<stop  offset="0.9" style="stop-color:#1A1A1A"/>
			</linearGradient>
			<path class="st6" d="M138.33,589.84l-20.98,0.06l4.04,4.04l16.94-0.04c9.74-0.02,12.1,2.23,12.1,11.57l0,41.24l4.05-4.06v-37.19
				C154.48,593.9,150.25,589.81,138.33,589.84z"/>
			<linearGradient id="SVGID_7_" gradientUnits="userSpaceOnUse" x1="110.9921" y1="646.7092" x2="110.9921" y2="589.8994">
				<stop  offset="0.1" style="stop-color:#000000"/>
				<stop  offset="0.5" style="stop-color:#666666"/>
				<stop  offset="0.9" style="stop-color:#999999"/>
			</linearGradient>
			<polygon class="st7" points="117.35,589.9 117.35,642.66 104.63,642.66 100.6,646.71 121.38,646.71 121.38,593.94 			"/>
			<linearGradient id="SVGID_8_" gradientUnits="userSpaceOnUse" x1="102.6163" y1="646.7092" x2="102.6163" y2="589.9338">
				<stop  offset="0.1" style="stop-color:#1A1A1A"/>
				<stop  offset="0.5" style="stop-color:#4D4D4D"/>
				<stop  offset="0.9" style="stop-color:#999999"/>
			</linearGradient>
			<polygon class="st8" points="100.6,593.99 100.6,646.71 104.63,642.66 104.63,589.93 			"/>
			<polygon class="st9" points="67.67,590.03 71.69,594.06 100.6,593.99 104.63,589.93 			"/>
			<linearGradient id="SVGID_9_" gradientUnits="userSpaceOnUse" x1="61.3613" y1="646.7129" x2="61.3613" y2="590.0341">
				<stop  offset="0.1" style="stop-color:#000000"/>
				<stop  offset="0.5" style="stop-color:#666666"/>
				<stop  offset="0.9" style="stop-color:#000000"/>
			</linearGradient>
			<polygon class="st10" points="67.67,590.03 67.67,642.67 55.04,642.67 51.03,646.71 71.69,646.71 71.69,594.06 			"/>
			<linearGradient id="SVGID_10_" gradientUnits="userSpaceOnUse" x1="500.9065" y1="646.6798" x2="500.9065" y2="599.3722">
				<stop  offset="0.1" style="stop-color:#000000"/>
				<stop  offset="0.9" style="stop-color:#8C8C8C"/>
			</linearGradient>
			<path class="st11" d="M540.4,642.54l-55.89,0.02c-15.78,0-23.11-6.17-23.14-19.47c-0.03-13.29,7.29-19.48,23.06-19.52l43.69-0.09
				l-4.05-4.12l-39.65,0.09c-17.98,0.04-27.1,8.01-27.07,23.64c0.03,15.63,9.19,23.58,27.17,23.58l59.94,0L540.4,642.54z"/>
			<linearGradient id="SVGID_11_" gradientUnits="userSpaceOnUse" x1="495.8369" y1="603.4894" x2="495.8369" y2="586.8259">
				<stop  offset="0.1047" style="stop-color:#262626"/>
				<stop  offset="0.9" style="stop-color:#1A1A1A"/>
			</linearGradient>
			<path class="st12" d="M514.5,586.83l-46.93,0.13l-4.01,4.13l50.95-0.14c8.51-0.02,9.54,0.75,9.55,7.21l0,1.21l4.05,4.12
				l-0.01-5.34C528.08,587.58,522.7,586.8,514.5,586.83z"/>
			<linearGradient id="SVGID_12_" gradientUnits="userSpaceOnUse" x1="526.146" y1="633.1943" x2="526.146" y2="612.2625">
				<stop  offset="0.1" style="stop-color:#4D4D4D"/>
				<stop  offset="0.9" style="stop-color:#000000"/>
			</linearGradient>
			<polygon class="st13" points="524.1,616.4 524.13,629.07 528.19,633.19 528.14,612.26 			"/>
			<linearGradient id="SVGID_13_" gradientUnits="userSpaceOnUse" x1="500.8363" y1="633.2243" x2="500.8363" y2="612.2625">
				<stop  offset="0.1" style="stop-color:#D9D9D9"/>
				<stop  offset="0.1768" style="stop-color:#A6A6A6"/>
				<stop  offset="0.2688" style="stop-color:#6F6F6F"/>
				<stop  offset="0.3484" style="stop-color:#484848"/>
				<stop  offset="0.4114" style="stop-color:#2F2F2F"/>
				<stop  offset="0.45" style="stop-color:#262626"/>
				<stop  offset="0.9" style="stop-color:#000000"/>
			</linearGradient>
			<path class="st14" d="M484.48,629.11c-4.61,0-6.96-2.13-6.97-6.32c-0.01-4.19,2.33-6.33,6.95-6.33l39.65-0.06l4.03-4.13
				l-43.69,0.07c-6.88,0.01-10.98,3.92-10.96,10.46c0.01,6.54,4.13,10.44,11.01,10.43l43.7-0.03l-4.05-4.12L484.48,629.11z"/>
			<path class="st15" d="M484.46,616.45c-4.61,0.01-6.95,2.14-6.95,6.33c0.01,4.19,2.36,6.32,6.97,6.32l39.65-0.03l-0.03-12.68
				L484.46,616.45z"/>
			<path class="st15" d="M198.59,623.12c0,2.28,0.64,4.62,5.35,4.61l38.06-0.04v-9.25l-38.06,0.05
				C199.23,618.5,198.59,620.83,198.59,623.12z"/>
			<path class="st15" d="M431.05,610.17c0-12.94-1.93-15.72-22.34-15.67l-23.05,0.06v31.38l23.05-0.02
				C429.12,625.89,431.05,623.11,431.05,610.17z"/>
			<polygon class="st0" points="293.11,646.69 293.11,646.69 293.11,646.69 			"/>
			<linearGradient id="SVGID_14_" gradientUnits="userSpaceOnUse" x1="293.1104" y1="646.6927" x2="293.1104" y2="646.4124">
				<stop  offset="0.2264" style="stop-color:#999999"/>
				<stop  offset="0.7753" style="stop-color:#C5C5C5"/>
				<stop  offset="1" style="stop-color:#D9D9D9"/>
			</linearGradient>
			<polygon class="st16" points="293.11,646.69 293.11,646.69 293.11,646.69 			"/>
			<polygon class="st17" points="320.19,627.88 320.19,627.88 320.53,627.63 			"/>
			<polygon class="st0" points="411.13,577.82 362.27,577.98 362.27,577.98 			"/>
			<linearGradient id="SVGID_15_" gradientUnits="userSpaceOnUse" x1="386.7005" y1="1221.4301" x2="386.7005" y2="-65.4677">
				<stop  offset="0.15" style="stop-color:#1A1A1A"/>
				<stop  offset="0.45" style="stop-color:#666666"/>
				<stop  offset="0.75" style="stop-color:#B3B3B3"/>
				<stop  offset="1" style="stop-color:#666666"/>
			</linearGradient>
			<polygon class="st18" points="411.13,577.82 362.27,577.98 362.27,577.98 			"/>
			<polygon class="st0" points="367.9,578.91 363.87,586.7 363.87,646.69 367.9,642.59 			"/>
			<linearGradient id="SVGID_16_" gradientUnits="userSpaceOnUse" x1="365.8851" y1="646.6895" x2="365.8851" y2="572.2538">
				<stop  offset="0.15" style="stop-color:#1A1A1A"/>
				<stop  offset="0.45" style="stop-color:#666666"/>
				<stop  offset="0.75" style="stop-color:#B3B3B3"/>
				<stop  offset="1" style="stop-color:#666666"/>
			</linearGradient>
			<polygon class="st19" points="367.9,578.91 363.87,586.7 363.87,646.69 367.9,642.59 			"/>
			<polygon class="st0" points="187.1,579.12 183.08,575.07 183.08,591.82 187.1,587.75 			"/>
			<linearGradient id="SVGID_17_" gradientUnits="userSpaceOnUse" x1="185.0884" y1="646.7029" x2="185.0884" y2="572.8961">
				<stop  offset="0.15" style="stop-color:#1A1A1A"/>
				<stop  offset="0.45" style="stop-color:#666666"/>
				<stop  offset="0.75" style="stop-color:#B3B3B3"/>
				<stop  offset="1" style="stop-color:#666666"/>
			</linearGradient>
			<polygon class="st20" points="187.1,579.12 183.08,575.07 183.08,591.82 187.1,587.75 			"/>
			<polygon class="st0" points="259.87,641.68 263.92,633.94 263.92,599.96 259.87,599.97 			"/>
			<linearGradient id="SVGID_18_" gradientUnits="userSpaceOnUse" x1="261.8933" y1="646.6983" x2="261.8933" y2="572.6117">
				<stop  offset="0.15" style="stop-color:#1A1A1A"/>
				<stop  offset="0.45" style="stop-color:#666666"/>
				<stop  offset="0.75" style="stop-color:#B3B3B3"/>
				<stop  offset="1" style="stop-color:#666666"/>
			</linearGradient>
			<polygon class="st21" points="259.87,641.68 263.92,633.94 263.92,599.96 259.87,599.97 			"/>
			<polygon class="st0" points="234.08,578.39 234.08,574.32 183.65,574.49 187.67,578.54 			"/>
			<linearGradient id="SVGID_19_" gradientUnits="userSpaceOnUse" x1="208.8616" y1="649.3502" x2="208.8616" y2="572.6583">
				<stop  offset="0.15" style="stop-color:#1A1A1A"/>
				<stop  offset="0.45" style="stop-color:#666666"/>
				<stop  offset="0.75" style="stop-color:#B3B3B3"/>
				<stop  offset="1" style="stop-color:#666666"/>
			</linearGradient>
			<polygon class="st22" points="234.08,578.39 234.08,574.32 183.65,574.49 187.67,578.54 			"/>
			<path class="st0" d="M259.87,599.97l4.05-0.01c0-21.44-4.99-25.72-29.84-25.64v4.07C255.28,578.32,259.87,582.15,259.87,599.97z"
				/>
			<linearGradient id="SVGID_20_" gradientUnits="userSpaceOnUse" x1="248.9977" y1="646.5383" x2="248.9977" y2="572.7193">
				<stop  offset="0.15" style="stop-color:#1A1A1A"/>
				<stop  offset="0.45" style="stop-color:#666666"/>
				<stop  offset="0.75" style="stop-color:#B3B3B3"/>
				<stop  offset="1" style="stop-color:#666666"/>
			</linearGradient>
			<path class="st23" d="M259.87,599.97l4.05-0.01c0-21.44-4.99-25.72-29.84-25.64v4.07C255.28,578.32,259.87,582.15,259.87,599.97z
				"/>
			<linearGradient id="SVGID_21_" gradientUnits="userSpaceOnUse" x1="223.7834" y1="641.6766" x2="223.7834" y2="574.3174">
				<stop  offset="0.1" style="stop-color:#000000"/>
				<stop  offset="0.9" style="stop-color:#666666"/>
			</linearGradient>
			<path class="st24" d="M263.92,599.96c0-21.44-4.99-25.72-29.84-25.64l-50.43,0.17l4.03,4.05l46.4-0.15
				c21.21-0.07,25.79,3.76,25.79,21.58l0,41.71l4.05-7.74L263.92,599.96z"/>
			<linearGradient id="SVGID_22_" gradientUnits="userSpaceOnUse" x1="227.2114" y1="646.7014" x2="227.2114" y2="600.0032">
				<stop  offset="0.1" style="stop-color:#000000"/>
				<stop  offset="0.9" style="stop-color:#666666"/>
			</linearGradient>
			<path class="st25" d="M276.37,642.61l-72.42,0.02c-15.78,0-23.12-6.09-23.12-19.21c0-13.12,7.33-19.23,23.12-19.27l43.72-0.09
				l-4.05-4.07l-39.68,0.09c-17.99,0.04-27.14,7.91-27.14,23.34c0,15.43,9.14,23.27,27.14,23.27l73.67-0.01L276.37,642.61z"/>
			<path class="st0" d="M247.67,598.8c0-10.44-5.38-11.21-13.59-11.18l-46.98,0.13l-4.02,4.07l51-0.13
				c8.52-0.02,9.55,0.74,9.55,7.12V600l4.05,4.07L247.67,598.8z"/>
			<linearGradient id="SVGID_23_" gradientUnits="userSpaceOnUse" x1="215.3719" y1="646.6003" x2="215.3719" y2="572.7414">
				<stop  offset="0.15" style="stop-color:#1A1A1A"/>
				<stop  offset="0.45" style="stop-color:#666666"/>
				<stop  offset="0.75" style="stop-color:#B3B3B3"/>
				<stop  offset="1" style="stop-color:#666666"/>
			</linearGradient>
			<path class="st26" d="M247.67,598.8c0-10.44-5.38-11.21-13.59-11.18l-46.98,0.13l-4.02,4.07l51-0.13
				c8.52-0.02,9.55,0.74,9.55,7.12V600l4.05,4.07L247.67,598.8z"/>
			<linearGradient id="SVGID_24_" gradientUnits="userSpaceOnUse" x1="215.3719" y1="604.0683" x2="215.3719" y2="587.6149">
				<stop  offset="0.1047" style="stop-color:#262626"/>
				<stop  offset="0.9" style="stop-color:#1A1A1A"/>
			</linearGradient>
			<path class="st27" d="M247.67,598.8c0-10.44-5.38-11.21-13.59-11.18l-46.98,0.13l-4.02,4.07l51-0.13
				c8.52-0.02,9.55,0.74,9.55,7.12V600l4.05,4.07L247.67,598.8z"/>
			<polygon class="st0" points="243.62,629.32 247.67,633.39 247.67,612.73 243.62,616.81 			"/>
			<linearGradient id="SVGID_25_" gradientUnits="userSpaceOnUse" x1="245.644" y1="646.6981" x2="245.644" y2="572.6694">
				<stop  offset="0.15" style="stop-color:#1A1A1A"/>
				<stop  offset="0.45" style="stop-color:#666666"/>
				<stop  offset="0.75" style="stop-color:#B3B3B3"/>
				<stop  offset="1" style="stop-color:#666666"/>
			</linearGradient>
			<polygon class="st28" points="243.62,629.32 247.67,633.39 247.67,612.73 243.62,616.81 			"/>
			<linearGradient id="SVGID_26_" gradientUnits="userSpaceOnUse" x1="245.644" y1="633.3918" x2="245.644" y2="612.7296">
				<stop  offset="0.1" style="stop-color:#4D4D4D"/>
				<stop  offset="0.9" style="stop-color:#000000"/>
			</linearGradient>
			<polygon class="st29" points="243.62,629.32 247.67,633.39 247.67,612.73 243.62,616.81 			"/>
			<path class="st0" d="M192.95,623.12c0,6.45,4.11,10.3,10.99,10.3l43.72-0.03l-4.05-4.07l-39.68,0.03c-4.62,0-6.96-2.1-6.96-6.24
				c0-4.14,2.35-6.25,6.96-6.25l39.68-0.06l4.05-4.08l-43.72,0.07C197.06,612.81,192.95,616.67,192.95,623.12z"/>
			<linearGradient id="SVGID_27_" gradientUnits="userSpaceOnUse" x1="220.3099" y1="646.7468" x2="220.3099" y2="572.6121">
				<stop  offset="0.15" style="stop-color:#1A1A1A"/>
				<stop  offset="0.45" style="stop-color:#666666"/>
				<stop  offset="0.75" style="stop-color:#B3B3B3"/>
				<stop  offset="1" style="stop-color:#666666"/>
			</linearGradient>
			<path class="st30" d="M192.95,623.12c0,6.45,4.11,10.3,10.99,10.3l43.72-0.03l-4.05-4.07l-39.68,0.03c-4.62,0-6.96-2.1-6.96-6.24
				c0-4.14,2.35-6.25,6.96-6.25l39.68-0.06l4.05-4.08l-43.72,0.07C197.06,612.81,192.95,616.67,192.95,623.12z"/>
			<linearGradient id="SVGID_28_" gradientUnits="userSpaceOnUse" x1="220.3099" y1="633.4214" x2="220.3099" y2="612.7296">
				<stop  offset="0.1" style="stop-color:#D9D9D9"/>
				<stop  offset="0.1768" style="stop-color:#A6A6A6"/>
				<stop  offset="0.2688" style="stop-color:#6F6F6F"/>
				<stop  offset="0.3484" style="stop-color:#484848"/>
				<stop  offset="0.4114" style="stop-color:#2F2F2F"/>
				<stop  offset="0.45" style="stop-color:#262626"/>
				<stop  offset="0.9" style="stop-color:#000000"/>
			</linearGradient>
			<path class="st31" d="M192.95,623.12c0,6.45,4.11,10.3,10.99,10.3l43.72-0.03l-4.05-4.07l-39.68,0.03c-4.62,0-6.96-2.1-6.96-6.24
				c0-4.14,2.35-6.25,6.96-6.25l39.68-0.06l4.05-4.08l-43.72,0.07C197.06,612.81,192.95,616.67,192.95,623.12z"/>
			<path class="st0" d="M408.71,588.75l-28.69,0.08l4.03,4.09l24.67-0.06c20.29-0.05,23.96,2.6,23.96,17.3
				c0,14.71-3.67,17.37-23.96,17.39l-24.67,0.02l-4.03,4.1l28.69-0.02c21.01-0.02,28.01-3.13,28.01-21.5
				C436.72,591.78,429.72,588.7,408.71,588.75z"/>
			<linearGradient id="SVGID_29_" gradientUnits="userSpaceOnUse" x1="408.3676" y1="646.7164" x2="408.3676" y2="572.0994">
				<stop  offset="0.15" style="stop-color:#1A1A1A"/>
				<stop  offset="0.45" style="stop-color:#666666"/>
				<stop  offset="0.75" style="stop-color:#B3B3B3"/>
				<stop  offset="1" style="stop-color:#666666"/>
			</linearGradient>
			<path class="st32" d="M408.71,588.75l-28.69,0.08l4.03,4.09l24.67-0.06c20.29-0.05,23.96,2.6,23.96,17.3
				c0,14.71-3.67,17.37-23.96,17.39l-24.67,0.02l-4.03,4.1l28.69-0.02c21.01-0.02,28.01-3.13,28.01-21.5
				C436.72,591.78,429.72,588.7,408.71,588.75z"/>
			<linearGradient id="SVGID_30_" gradientUnits="userSpaceOnUse" x1="408.3676" y1="631.678" x2="408.3676" y2="588.753">
				<stop  offset="0.1" style="stop-color:#D9D9D9"/>
				<stop  offset="0.1768" style="stop-color:#A6A6A6"/>
				<stop  offset="0.2688" style="stop-color:#6F6F6F"/>
				<stop  offset="0.3484" style="stop-color:#484848"/>
				<stop  offset="0.4114" style="stop-color:#2F2F2F"/>
				<stop  offset="0.45" style="stop-color:#262626"/>
				<stop  offset="0.9047" style="stop-color:#1A1A1A"/>
			</linearGradient>
			<path class="st33" d="M408.71,588.75l-28.69,0.08l4.03,4.09l24.67-0.06c20.29-0.05,23.96,2.6,23.96,17.3
				c0,14.71-3.67,17.37-23.96,17.39l-24.67,0.02l-4.03,4.1l28.69-0.02c21.01-0.02,28.01-3.13,28.01-21.5
				C436.72,591.78,429.72,588.7,408.71,588.75z"/>
			<polygon class="st0" points="384.05,592.92 380.02,588.83 380.02,631.68 384.05,627.58 			"/>
			<linearGradient id="SVGID_31_" gradientUnits="userSpaceOnUse" x1="382.0321" y1="646.6883" x2="382.0321" y2="572.2106">
				<stop  offset="0.15" style="stop-color:#1A1A1A"/>
				<stop  offset="0.45" style="stop-color:#666666"/>
				<stop  offset="0.75" style="stop-color:#B3B3B3"/>
				<stop  offset="1" style="stop-color:#666666"/>
			</linearGradient>
			<polygon class="st34" points="384.05,592.92 380.02,588.83 380.02,631.68 384.05,627.58 			"/>
			<linearGradient id="SVGID_32_" gradientUnits="userSpaceOnUse" x1="382.0321" y1="631.678" x2="382.0321" y2="588.8332">
				<stop  offset="0.1" style="stop-color:#4D4D4D"/>
				<stop  offset="0.9" style="stop-color:#000000"/>
			</linearGradient>
			<polygon class="st35" points="384.05,592.92 380.02,588.83 380.02,631.68 384.05,627.58 			"/>
			<polygon class="st0" points="362.27,577.98 362.27,577.98 351.78,578.01 351.78,578.01 			"/>
			<linearGradient id="SVGID_33_" gradientUnits="userSpaceOnUse" x1="357.0218" y1="715.5177" x2="357.0218" y2="440.5048">
				<stop  offset="0.15" style="stop-color:#1A1A1A"/>
				<stop  offset="0.45" style="stop-color:#666666"/>
				<stop  offset="0.75" style="stop-color:#B3B3B3"/>
				<stop  offset="1" style="stop-color:#666666"/>
			</linearGradient>
			<polygon class="st36" points="362.27,577.98 362.27,577.98 351.78,578.01 351.78,578.01 			"/>
			<polygon class="st0" points="321.48,578.11 334.52,573.98 274.78,574.18 278.8,578.25 			"/>
			<linearGradient id="SVGID_34_" gradientUnits="userSpaceOnUse" x1="304.6493" y1="649.9203" x2="304.6493" y2="572.2952">
				<stop  offset="0.15" style="stop-color:#1A1A1A"/>
				<stop  offset="0.45" style="stop-color:#666666"/>
				<stop  offset="0.75" style="stop-color:#B3B3B3"/>
				<stop  offset="1" style="stop-color:#666666"/>
			</linearGradient>
			<polygon class="st37" points="321.48,578.11 334.52,573.98 274.78,574.18 278.8,578.25 			"/>
			<polygon class="st0" points="278.23,578.83 274.21,574.76 274.21,593.2 274.21,593.2 278.23,589.11 			"/>
			<linearGradient id="SVGID_35_" gradientUnits="userSpaceOnUse" x1="276.2213" y1="646.6963" x2="276.2213" y2="572.5795">
				<stop  offset="0.15" style="stop-color:#1A1A1A"/>
				<stop  offset="0.45" style="stop-color:#666666"/>
				<stop  offset="0.75" style="stop-color:#B3B3B3"/>
				<stop  offset="1" style="stop-color:#666666"/>
			</linearGradient>
			<polygon class="st38" points="278.23,578.83 274.21,574.76 274.21,593.2 274.21,593.2 278.23,589.11 			"/>
			<polygon class="st0" points="349.48,631.7 322.21,631.72 322.21,631.72 			"/>
			<linearGradient id="SVGID_36_" gradientUnits="userSpaceOnUse" x1="335.8427" y1="769.7783" x2="335.8427" y2="617.9745">
				<stop  offset="0.15" style="stop-color:#1A1A1A"/>
				<stop  offset="0.45" style="stop-color:#666666"/>
				<stop  offset="0.75" style="stop-color:#B3B3B3"/>
				<stop  offset="1" style="stop-color:#666666"/>
			</linearGradient>
			<polygon class="st39" points="349.48,631.7 322.21,631.72 322.21,631.72 			"/>
			<polygon class="st9" points="334.52,573.98 321.48,578.11 305.81,589.04 278.23,589.11 274.21,593.2 307.06,593.12 			"/>
			<polygon class="st0" points="306.12,642.61 321.44,631.96 320.19,627.88 293.11,646.69 293.11,646.69 			"/>
			<linearGradient id="SVGID_37_" gradientUnits="userSpaceOnUse" x1="307.2742" y1="646.6927" x2="307.2742" y2="572.4092">
				<stop  offset="0.15" style="stop-color:#1A1A1A"/>
				<stop  offset="0.45" style="stop-color:#666666"/>
				<stop  offset="0.75" style="stop-color:#B3B3B3"/>
				<stop  offset="1" style="stop-color:#666666"/>
			</linearGradient>
			<polygon class="st40" points="306.12,642.61 321.44,631.96 320.19,627.88 293.11,646.69 293.11,646.69 			"/>
			<linearGradient id="SVGID_38_" gradientUnits="userSpaceOnUse" x1="307.2742" y1="646.6927" x2="307.2742" y2="627.6339">
				<stop  offset="0.2264" style="stop-color:#999999"/>
				<stop  offset="0.7753" style="stop-color:#C5C5C5"/>
				<stop  offset="1" style="stop-color:#D9D9D9"/>
			</linearGradient>
			<polygon class="st41" points="306.12,642.61 321.44,631.96 320.19,627.88 293.11,646.69 293.11,646.69 			"/>
			<polygon class="st0" points="320.96,627.63 322.21,631.72 349.48,631.7 353.53,627.6 320.53,627.63 			"/>
			<linearGradient id="SVGID_39_" gradientUnits="userSpaceOnUse" x1="337.0308" y1="646.7842" x2="337.0308" y2="572.037">
				<stop  offset="0.15" style="stop-color:#1A1A1A"/>
				<stop  offset="0.45" style="stop-color:#666666"/>
				<stop  offset="0.75" style="stop-color:#B3B3B3"/>
				<stop  offset="1" style="stop-color:#666666"/>
			</linearGradient>
			<polygon class="st42" points="320.96,627.63 322.21,631.72 349.48,631.7 353.53,627.6 320.53,627.63 			"/>
			<linearGradient id="SVGID_40_" gradientUnits="userSpaceOnUse" x1="337.0308" y1="646.7821" x2="337.0308" y2="627.6043">
				<stop  offset="0.2264" style="stop-color:#999999"/>
				<stop  offset="0.7753" style="stop-color:#C5C5C5"/>
				<stop  offset="1" style="stop-color:#D9D9D9"/>
			</linearGradient>
			<polygon class="st43" points="320.96,627.63 322.21,631.72 349.48,631.7 353.53,627.6 320.53,627.63 			"/>
			<polygon class="st0" points="349.48,642.6 306.12,642.61 293.11,646.69 353.53,646.69 353.53,627.6 349.48,631.7 			"/>
			<linearGradient id="SVGID_41_" gradientUnits="userSpaceOnUse" x1="323.3185" y1="646.6927" x2="323.3185" y2="572.2844">
				<stop  offset="0.15" style="stop-color:#1A1A1A"/>
				<stop  offset="0.45" style="stop-color:#666666"/>
				<stop  offset="0.75" style="stop-color:#B3B3B3"/>
				<stop  offset="1" style="stop-color:#666666"/>
			</linearGradient>
			<polygon class="st44" points="349.48,642.6 306.12,642.61 293.11,646.69 353.53,646.69 353.53,627.6 349.48,631.7 			"/>
			<linearGradient id="SVGID_42_" gradientUnits="userSpaceOnUse" x1="323.3185" y1="646.6927" x2="323.3185" y2="627.6043">
				<stop  offset="0.1" style="stop-color:#000000"/>
				<stop  offset="0.9" style="stop-color:#666666"/>
			</linearGradient>
			<polygon class="st45" points="349.48,642.6 306.12,642.61 293.11,646.69 353.53,646.69 353.53,627.6 349.48,631.7 			"/>
			<linearGradient id="SVGID_43_" gradientUnits="userSpaceOnUse" x1="305.4349" y1="651.1703" x2="305.4349" y2="572.4615">
				<stop  offset="0.15" style="stop-color:#1A1A1A"/>
				<stop  offset="0.45" style="stop-color:#666666"/>
				<stop  offset="0.75" style="stop-color:#B3B3B3"/>
				<stop  offset="1" style="stop-color:#666666"/>
			</linearGradient>
			<polygon class="st46" points="351,578.26 349.75,574.17 263.92,633.94 259.87,641.68 			"/>
			<linearGradient id="SVGID_44_" gradientUnits="userSpaceOnUse" x1="305.4349" y1="645.8352" x2="305.4349" y2="574.167">
				<stop  offset="0.2264" style="stop-color:#B3B3B3"/>
				<stop  offset="0.9039" style="stop-color:#DFDFDF"/>
				<stop  offset="1" style="stop-color:#E6E6E6"/>
			</linearGradient>
			<polygon class="st47" points="351,578.26 349.75,574.17 263.92,633.94 259.87,641.68 			"/>
			<linearGradient id="SVGID_45_" gradientUnits="userSpaceOnUse" x1="322.1321" y1="646.6939" x2="322.1321" y2="574.7343">
				<stop  offset="0.1" style="stop-color:#000000"/>
				<stop  offset="0.5" style="stop-color:#666666"/>
				<stop  offset="0.9" style="stop-color:#1A1A1A"/>
			</linearGradient>
			<polygon class="st48" points="276.37,642.61 277.62,646.69 363.87,586.7 367.9,578.91 			"/>
			<linearGradient id="SVGID_46_" gradientUnits="userSpaceOnUse" x1="401.7454" y1="646.6895" x2="401.7454" y2="573.714">
				<stop  offset="0.1" style="stop-color:#000000"/>
				<stop  offset="0.9" style="stop-color:#666666"/>
			</linearGradient>
			<path class="st49" d="M411.13,573.72l-60.61,0.21l1.26,4.09l59.36-0.19c31.06-0.1,37.78,5.64,37.78,32.31
				c0,26.68-6.72,32.44-37.78,32.45l-43.24,0.01l-4.02,4.1l47.26,0c33.26,0,41.84-7.49,41.84-36.56S444.39,573.6,411.13,573.72z"/>
		</g>
		<g id="_white">
			<path class="st17" d="M278.23,589.11l27.58-0.07l15.67-10.93l-42.68,0.14l-4.02-4.07l-0.57,0v0.58l4.02,4.07V589.11z"/>
			<path class="st17" d="M322.21,631.72L322.21,631.72l-1.25-4.09l-0.42,0l-0.35,0.24l1.25,4.09l-15.32,10.64l43.36-0.01V631.7
				L322.21,631.72z"/>
			<g>
				<path class="st17" d="M138.85,578.7l-83.24,0.27l-4.02-4.02l-0.57,0v0.57l4.02,4.02v63.14l12.63,0l0-52.64l36.96-0.1v52.73
					l12.71,0l0-52.76l20.98-0.06c11.92-0.03,16.15,4.05,16.15,15.62v37.19l12.75,0l0-37.57
					C167.22,584.05,161.38,578.62,138.85,578.7z"/>
				<path class="st17" d="M514.48,577.48l-46.36,0.15l-4.03-4.1l-0.57,0l0,0.58l4.03,4.1l0.02,8.74l46.93-0.13
					c8.2-0.02,13.58,0.75,13.61,11.33l0.01,5.34l-43.69,0.09c-15.77,0.03-23.09,6.23-23.06,19.52c0.03,13.29,7.37,19.47,23.14,19.47
					l55.89-0.02l-0.1-43.21C540.26,581.29,535.67,577.41,514.48,577.48z M528.19,633.19l-43.7,0.03c-6.88,0-10.99-3.89-11.01-10.43
					c-0.01-6.54,4.08-10.45,10.96-10.46l43.69-0.07L528.19,633.19z"/>
			</g>
			<path class="st17" d="M411.13,577.82l-59.36,0.19l0,0l-1.26-4.09l-0.42,0l-0.35,0.24l1.26,4.09h0l-91.14,63.42l0-41.71
				c0-17.81-4.58-21.64-25.79-21.58l-46.41,0.15l-4.02-4.05l-0.57,0v0.57l4.02,4.05v8.63l46.98-0.13
				c8.21-0.02,13.59,0.74,13.59,11.18v5.27l-43.72,0.09c-15.78,0.03-23.12,6.15-23.12,19.27c0,13.12,7.33,19.22,23.12,19.21
				l72.42-0.02l91.53-63.71v63.68l43.24-0.01c31.06-0.01,37.78-5.77,37.78-32.45C448.92,583.46,442.2,577.72,411.13,577.82z
				 M203.94,633.42c-6.88,0-10.99-3.84-10.99-10.3c0-6.45,4.11-10.31,10.99-10.32l43.72-0.07l0,20.66L203.94,633.42z M408.7,631.65
				l-28.68,0.02v-42.84l28.68-0.08c20.94-0.06,28.02,2.97,28.02,21.4C436.72,628.65,429.56,631.64,408.7,631.65z"/>
		</g>
		<g id="_top">
			<linearGradient id="SVGID_47_" gradientUnits="userSpaceOnUse" x1="408.4028" y1="641.7734" x2="408.4028" y2="577.1302">
				<stop  offset="0" style="stop-color:#B5B5B5"/>
				<stop  offset="0.1138" style="stop-color:#A2A2A2"/>
				<stop  offset="0.2" style="stop-color:#999999"/>
				<stop  offset="0.3141" style="stop-color:#909090"/>
				<stop  offset="0.39" style="stop-color:#878787"/>
				<stop  offset="0.4" style="stop-color:#B3B3B3"/>
				<stop  offset="0.527" style="stop-color:#CFCFCF"/>
				<stop  offset="0.7" style="stop-color:#F2F2F2"/>
				<stop  offset="0.8212" style="stop-color:#E9E9E9"/>
				<stop  offset="1" style="stop-color:#D4D4D4"/>
			</linearGradient>
			<path class="st50" d="M448.11,610.14c0-26.15-6.4-31.59-36.97-31.49l-42.43,0.14v63l42.43-0.01
				C441.7,641.75,448.11,636.28,448.11,610.14z M379.21,632.5v-44.48l29.5-0.08c21.26-0.06,28.82,3.29,28.82,22.22
				s-7.56,22.31-28.82,22.32L379.21,632.5z"/>
			<linearGradient id="SVGID_48_" gradientUnits="userSpaceOnUse" x1="220.3449" y1="641.8226" x2="220.3449" y2="577.7054">
				<stop  offset="0" style="stop-color:#B5B5B5"/>
				<stop  offset="0.1138" style="stop-color:#A2A2A2"/>
				<stop  offset="0.2" style="stop-color:#999999"/>
				<stop  offset="0.3141" style="stop-color:#909090"/>
				<stop  offset="0.39" style="stop-color:#878787"/>
				<stop  offset="0.4" style="stop-color:#B3B3B3"/>
				<stop  offset="0.527" style="stop-color:#CFCFCF"/>
				<stop  offset="0.7" style="stop-color:#F2F2F2"/>
				<stop  offset="0.8212" style="stop-color:#E9E9E9"/>
				<stop  offset="1" style="stop-color:#D4D4D4"/>
			</linearGradient>
			<path class="st51" d="M248.48,598.8v6.08l-44.53,0.09c-15.31,0.03-22.31,5.83-22.31,18.45c0,12.63,7,18.4,22.31,18.4l55.11-0.02
				l0-41.84c0-17.36-4.17-20.83-24.98-20.76l-46.17,0.15v7.58l46.17-0.13C242.51,586.78,248.48,587.62,248.48,598.8z M248.48,634.21
				l-44.53,0.03c-7.28,0-11.8-4.25-11.8-11.11s4.52-11.12,11.8-11.14l44.53-0.08L248.48,634.21z"/>
			<linearGradient id="SVGID_49_" gradientUnits="userSpaceOnUse" x1="298.9552" y1="642.5281" x2="298.9552" y2="577.4135">
				<stop  offset="0" style="stop-color:#B5B5B5"/>
				<stop  offset="0.1138" style="stop-color:#A2A2A2"/>
				<stop  offset="0.2" style="stop-color:#999999"/>
				<stop  offset="0.3141" style="stop-color:#909090"/>
				<stop  offset="0.39" style="stop-color:#878787"/>
				<stop  offset="0.4" style="stop-color:#B3B3B3"/>
				<stop  offset="0.527" style="stop-color:#CFCFCF"/>
				<stop  offset="0.7" style="stop-color:#F2F2F2"/>
				<stop  offset="0.8212" style="stop-color:#E9E9E9"/>
				<stop  offset="1" style="stop-color:#D4D4D4"/>
			</linearGradient>
			<polygon class="st52" points="318.87,578.94 279.04,579.06 279.04,588.29 305.56,588.22 			"/>
			<linearGradient id="SVGID_50_" gradientUnits="userSpaceOnUse" x1="328.6929" y1="641.7892" x2="328.6929" y2="577.2731">
				<stop  offset="0" style="stop-color:#B5B5B5"/>
				<stop  offset="0.1138" style="stop-color:#A2A2A2"/>
				<stop  offset="0.2" style="stop-color:#999999"/>
				<stop  offset="0.3141" style="stop-color:#909090"/>
				<stop  offset="0.39" style="stop-color:#878787"/>
				<stop  offset="0.4" style="stop-color:#B3B3B3"/>
				<stop  offset="0.527" style="stop-color:#CFCFCF"/>
				<stop  offset="0.7" style="stop-color:#F2F2F2"/>
				<stop  offset="0.8212" style="stop-color:#E9E9E9"/>
				<stop  offset="1" style="stop-color:#D4D4D4"/>
			</linearGradient>
			<polygon class="st53" points="348.67,641.78 348.67,632.52 322.04,632.54 308.72,641.79 			"/>
			<linearGradient id="SVGID_51_" gradientUnits="userSpaceOnUse" x1="111.1289" y1="641.8671" x2="111.1289" y2="578.3056">
				<stop  offset="0" style="stop-color:#B5B5B5"/>
				<stop  offset="0.1138" style="stop-color:#A2A2A2"/>
				<stop  offset="0.2" style="stop-color:#999999"/>
				<stop  offset="0.3141" style="stop-color:#909090"/>
				<stop  offset="0.39" style="stop-color:#878787"/>
				<stop  offset="0.4" style="stop-color:#B3B3B3"/>
				<stop  offset="0.527" style="stop-color:#CFCFCF"/>
				<stop  offset="0.7" style="stop-color:#F2F2F2"/>
				<stop  offset="0.8212" style="stop-color:#E9E9E9"/>
				<stop  offset="1" style="stop-color:#D4D4D4"/>
			</linearGradient>
			<path class="st54" d="M138.85,579.51l-83.01,0.26v62.09l11.02,0v-52.64l38.57-0.11v52.73l11.1,0v-52.76l21.79-0.06
				c12.36-0.03,16.96,4.42,16.96,16.42l0,36.38l11.13,0l0-36.75C166.41,584.47,160.98,579.44,138.85,579.51z"/>
			<linearGradient id="SVGID_52_" gradientUnits="userSpaceOnUse" x1="500.8819" y1="641.8692" x2="500.8819" y2="578.3077">
				<stop  offset="0" style="stop-color:#B5B5B5"/>
				<stop  offset="0.1138" style="stop-color:#A2A2A2"/>
				<stop  offset="0.2" style="stop-color:#999999"/>
				<stop  offset="0.3141" style="stop-color:#909090"/>
				<stop  offset="0.39" style="stop-color:#878787"/>
				<stop  offset="0.4" style="stop-color:#B3B3B3"/>
				<stop  offset="0.527" style="stop-color:#CFCFCF"/>
				<stop  offset="0.7" style="stop-color:#F2F2F2"/>
				<stop  offset="0.8212" style="stop-color:#E9E9E9"/>
				<stop  offset="1" style="stop-color:#D4D4D4"/>
			</linearGradient>
			<path class="st55" d="M514.48,578.31l-46.13,0.15l0.02,7.68L514.5,586c8.42-0.02,14.39,0.83,14.42,12.15l0.01,6.16l-44.5,0.09
				c-15.3,0.03-22.28,5.9-22.26,18.69c0.03,12.79,7.04,18.65,22.34,18.64l55.08-0.02l-0.1-42.38
				C539.45,581.75,535.27,578.24,514.48,578.31z M484.49,634.05c-7.27,0-11.8-4.31-11.81-11.25c-0.01-6.95,4.49-11.27,11.76-11.28
				l44.5-0.08l0.05,22.58L484.49,634.05z"/>
			<linearGradient id="SVGID_53_" gradientUnits="userSpaceOnUse" x1="313.8516" y1="641.8226" x2="313.8516" y2="577.2847">
				<stop  offset="0" style="stop-color:#B5B5B5"/>
				<stop  offset="0.1138" style="stop-color:#A2A2A2"/>
				<stop  offset="0.2" style="stop-color:#999999"/>
				<stop  offset="0.3141" style="stop-color:#909090"/>
				<stop  offset="0.39" style="stop-color:#878787"/>
				<stop  offset="0.4" style="stop-color:#B3B3B3"/>
				<stop  offset="0.527" style="stop-color:#CFCFCF"/>
				<stop  offset="0.7" style="stop-color:#F2F2F2"/>
				<stop  offset="0.8212" style="stop-color:#E9E9E9"/>
				<stop  offset="1" style="stop-color:#D4D4D4"/>
			</linearGradient>
			<polygon class="st56" points="366.66,578.8 351.6,578.83 261.05,641.82 276.12,641.8 			"/>
		</g>
		<linearGradient id="SVGID_54_" gradientUnits="userSpaceOnUse" x1="504.2586" y1="646.7128" x2="504.2586" y2="573.2999">
			<stop  offset="0.1" style="stop-color:#000000"/>
			<stop  offset="0.9" style="stop-color:#666666"/>
		</linearGradient>
		<path class="st57" d="M513.99,573.3l-49.9,0.24l4.03,4.1l45.87-0.21c21.63-0.07,26.31,3.81,26.31,21.88v43.27l4.13,4.13V599.3
			C544.43,577.55,539.34,573.21,513.99,573.3z"/>
		<linearGradient id="SVGID_55_" gradientUnits="userSpaceOnUse" x1="227.2114" y1="646.713" x2="227.2114" y2="600.0032">
			<stop  offset="0.1" style="stop-color:#000000"/>
			<stop  offset="0.9" style="stop-color:#8C8C8C"/>
		</linearGradient>
		<path class="st58" d="M276.37,642.61l-72.44,0.03c-15.78,0-23.1-6.1-23.1-19.22c0-13.12,7.33-19.24,23.1-19.27l43.74-0.1
			l-4.05-4.07l-39.69,0.09c-17.98,0.04-27.12,7.91-27.12,23.34c0,15.43,9.14,23.28,27.12,23.28l73.69-0.02L276.37,642.61z"/>
		<g id="_high_light">
			<linearGradient id="SVGID_56_" gradientUnits="userSpaceOnUse" x1="142.8426" y1="570.6547" x2="174.2705" y2="602.0825">
				<stop  offset="0.1" style="stop-color:#FFFFFF;stop-opacity:0"/>
				<stop  offset="0.4" style="stop-color:#FFFFFF"/>
				<stop  offset="0.6" style="stop-color:#FFFFFF"/>
				<stop  offset="0.9" style="stop-color:#FFFFFF;stop-opacity:0"/>
			</linearGradient>
			<path class="st59" d="M138.85,574.64l0,4.05c22.53-0.07,28.37,5.35,28.37,26.38l4.06-0.01
				C171.28,580.54,164.89,574.55,138.85,574.64z"/>
			<linearGradient id="SVGID_57_" gradientUnits="userSpaceOnUse" x1="518.3084" y1="569.5232" x2="546.2293" y2="597.4441">
				<stop  offset="0.1" style="stop-color:#FFFFFF;stop-opacity:0"/>
				<stop  offset="0.4" style="stop-color:#FFFFFF"/>
				<stop  offset="0.6" style="stop-color:#FFFFFF"/>
				<stop  offset="0.9" style="stop-color:#FFFFFF;stop-opacity:0"/>
			</linearGradient>
			<path class="st60" d="M514.47,573.36l0.01,4.12c21.19-0.07,25.78,3.81,25.82,21.85l4.05-0.01
				C544.3,577.61,539.3,573.28,514.47,573.36z"/>
			<linearGradient id="SVGID_58_" gradientUnits="userSpaceOnUse" x1="456.5056" y1="622.2539" x2="481.8593" y2="596.9001">
				<stop  offset="0.1" style="stop-color:#FFFFFF;stop-opacity:0"/>
				<stop  offset="0.4" style="stop-color:#FFFFFF"/>
				<stop  offset="0.6" style="stop-color:#FFFFFF"/>
				<stop  offset="0.9" style="stop-color:#FFFFFF;stop-opacity:0"/>
			</linearGradient>
			<path class="st61" d="M484.42,599.46c-17.98,0.04-27.1,8.01-27.07,23.64l4.02,0c-0.03-13.29,7.29-19.48,23.06-19.52
				L484.42,599.46z"/>
			<linearGradient id="SVGID_59_" gradientUnits="userSpaceOnUse" x1="237.9444" y1="570.4501" x2="265.6853" y2="598.191">
				<stop  offset="0.1" style="stop-color:#FFFFFF;stop-opacity:0"/>
				<stop  offset="0.4" style="stop-color:#FFFFFF"/>
				<stop  offset="0.6" style="stop-color:#FFFFFF"/>
				<stop  offset="0.9" style="stop-color:#FFFFFF;stop-opacity:0"/>
			</linearGradient>
			<path class="st62" d="M259.87,599.97l4.05-0.01c0-21.44-4.99-25.72-29.84-25.64v4.07C255.28,578.32,259.87,582.15,259.87,599.97z
				"/>
			<linearGradient id="SVGID_60_" gradientUnits="userSpaceOnUse" x1="176.1015" y1="622.7222" x2="201.3383" y2="597.4854">
				<stop  offset="0.1" style="stop-color:#FFFFFF;stop-opacity:0"/>
				<stop  offset="0.4" style="stop-color:#FFFFFF"/>
				<stop  offset="0.6" style="stop-color:#FFFFFF"/>
				<stop  offset="0.9" style="stop-color:#FFFFFF;stop-opacity:0"/>
			</linearGradient>
			<path class="st63" d="M203.94,604.16l0-4.07c-17.99,0.04-27.14,7.91-27.14,23.34l4.02,0
				C180.83,610.3,188.16,604.19,203.94,604.16z"/>
			<linearGradient id="SVGID_61_" gradientUnits="userSpaceOnUse" x1="416.6562" y1="568.1931" x2="455.7795" y2="607.3164">
				<stop  offset="0.1" style="stop-color:#FFFFFF;stop-opacity:0"/>
				<stop  offset="0.4" style="stop-color:#FFFFFF"/>
				<stop  offset="0.6" style="stop-color:#FFFFFF"/>
				<stop  offset="0.9" style="stop-color:#FFFFFF;stop-opacity:0"/>
			</linearGradient>
			<path class="st64" d="M448.92,610.13l4.05-0.01c0-29.07-8.58-36.53-41.84-36.41v4.1C442.2,577.72,448.92,583.46,448.92,610.13z"
				/>
		</g>
	</g>
	<g id="symbol">
		<path d="M466.65,245.8c-33.28-35.72-86.99-52.1-168.88-52.18c0,0-0.01,0-0.01,0c0,0-0.01,0-0.01,0
			c-81.89,0.08-135.61,16.45-168.88,52.18c-24.7,26.51-40.23,63.18-40.23,112.96c0,27.5,6.8,97.59,62.11,133.75
			c33.12,21.66,75.88,35.66,147,35.76v0c0,0,0.01,0,0.01,0c0,0,0.01,0,0.01,0v0c71.12-0.1,113.87-14.1,147-35.76
			c55.31-36.17,62.11-106.26,62.11-133.75C506.87,309.14,491.25,272.21,466.65,245.8z M297.75,499.45
			c-26.92-0.04-48.76-2.24-66.77-6.73c-17.62-4.39-32.3-11.16-44.86-20.7c-9.39-7.13-17.55-16.13-24.27-26.78
			c-5.74-9.09-10.48-19.46-14.1-30.82c-7.35-23.07-8.14-44.05-8.14-52.01c0-11.71,0.79-22.84,2.36-33.1
			c19.25,10.39,37.53,15.6,53.66,20.19c1.26,0.36,2.51,0.71,3.75,1.07c22.47,6.44,40.34,14.93,54.62,25.94
			c8.31,6.4,15.53,13.81,21.45,22c6.42,8.87,11.55,18.98,15.27,30.05c1.69,5.05,3.46,8.18,7.04,8.18c3.58,0,5.35-3.13,7.04-8.18
			c3.71-11.07,8.85-21.18,15.27-30.05c5.93-8.19,13.15-15.6,21.45-22c14.28-11.01,32.15-19.5,54.62-25.94
			c1.24-0.36,2.49-0.71,3.75-1.07c16.13-4.6,34.41-9.8,53.66-20.19c1.56,10.26,2.36,21.39,2.36,33.1c0,7.98-0.79,29.02-8.1,52.01
			c-3.61,11.37-8.36,21.74-14.1,30.82c-6.72,10.64-14.91,19.65-24.32,26.78c-12.59,9.53-27.27,16.3-44.87,20.69
			C346.49,497.2,324.65,499.41,297.75,499.45L297.75,499.45L297.75,499.45z M297.75,376.21c-0.65,0-1.85-0.78-3.87-4.52
			c-8.68-16.04-20.27-29.84-34.44-41.03c-10.73-8.47-23.04-15.49-36.6-20.86c-2-0.79-4-1.58-6.02-2.38
			c-17.66-6.96-35.92-14.15-52.91-23.97c-1.9-1.1-3.78-2.23-5.57-3.35c3.4-5.94,7.32-11.58,11.66-16.76
			c6.3-7.52,13.65-14.14,21.85-19.69c8.3-5.62,17.79-10.35,28.2-14.07c21.23-7.57,46.64-11.27,77.69-11.3
			c31.06,0.03,56.48,3.73,77.7,11.3c10.41,3.71,19.89,8.44,28.2,14.07c8.2,5.55,15.55,12.18,21.85,19.69
			c4.34,5.18,8.26,10.82,11.66,16.76c-1.8,1.12-3.67,2.25-5.57,3.35c-16.99,9.82-35.25,17.01-52.91,23.97
			c-2.01,0.79-4.02,1.58-6.02,2.38c-13.56,5.37-25.87,12.39-36.6,20.86c-14.17,11.18-25.76,24.99-34.44,41.03
			C299.6,375.43,298.4,376.21,297.75,376.21L297.75,376.21z"/>
		<path class="st17" d="M494.87,294c-6.66-17.86-16.45-33.81-29.11-47.39c-16.62-17.84-38.12-30.64-65.71-39.14
			c-27.55-8.48-61.01-12.62-102.29-12.66c-41.29,0.04-74.75,4.18-102.3,12.66c-27.6,8.5-49.09,21.3-65.71,39.14
			c-12.71,13.64-22.51,29.57-29.14,47.37c-7.15,19.19-10.78,40.99-10.78,64.78c0,21.7,4.44,95.4,61.61,132.76
			c17.81,11.64,37.08,20.08,58.9,25.81c24.85,6.51,53.44,9.7,87.41,9.75h0.01c33.98-0.05,62.57-3.23,87.42-9.75
			c21.83-5.72,41.1-14.16,58.9-25.81c57.16-37.37,61.61-111.07,61.61-132.76C505.68,335.05,502.05,313.26,494.87,294z M156.92,280.1
			c3.53-6.25,7.58-12.08,12.14-17.53c25.95-30.97,66.84-45.43,128.7-45.49c61.84,0.06,102.74,14.52,128.69,45.49
			c4.56,5.44,8.61,11.28,12.14,17.52c0.08,0.14,0.16,0.29,0.24,0.43c-0.14,0.09-0.28,0.18-0.42,0.27
			c-3.22,2.04-6.58,4.01-10.08,5.94c-15.97,8.79-32.9,15.45-49.27,21.9c-2.01,0.79-4.02,1.58-6.02,2.38
			c-31.39,12.44-55.05,33.05-70.33,61.26c-1.94,3.58-3.47,5.17-4.96,5.17c-1.49,0-3.02-1.59-4.96-5.17
			c-15.28-28.21-38.94-48.83-70.33-61.26c-1.97-0.78-3.96-1.56-5.95-2.35l-0.07-0.03c-16.37-6.45-33.3-13.11-49.27-21.9
			c-3.5-1.93-6.86-3.9-10.08-5.94c-0.14-0.09-0.28-0.18-0.42-0.27C156.76,280.39,156.84,280.24,156.92,280.1z M410.14,472.98
			c-25.53,19.32-59.13,27.6-112.36,27.68l-0.03,0l0,0c-53.32-0.08-86.93-8.36-112.38-27.68c-44.75-33.96-47.01-98.06-47.01-110.57
			c0-12.34,0.85-23.84,2.55-34.57c0.03-0.17,0.05-0.35,0.08-0.52c0.15,0.09,0.31,0.17,0.46,0.25
			c19.61,10.78,37.82,15.97,54.58,20.74c1.26,0.36,2.52,0.72,3.76,1.07c22.61,6.48,40.59,15.02,54.99,26.12
			c8.39,6.47,15.69,13.95,21.68,22.23c6.48,8.96,11.67,19.17,15.42,30.34c1.79,5.34,3.38,7.32,5.86,7.32c2.48,0,4.07-1.98,5.86-7.32
			c3.75-11.18,8.94-21.38,15.42-30.34c5.99-8.28,13.29-15.76,21.68-22.23c14.39-11.09,32.38-19.64,54.99-26.12
			c1.25-0.36,2.5-0.71,3.76-1.07c16.76-4.77,34.97-9.96,54.58-20.74c0.15-0.08,0.31-0.17,0.46-0.25c0.03,0.17,0.06,0.35,0.08,0.52
			c1.7,10.72,2.55,22.23,2.55,34.57C457.15,374.93,454.88,439.12,410.14,472.98z"/>
		<linearGradient id="in_sf_base_3_" gradientUnits="userSpaceOnUse" x1="257.385" y1="202.4227" x2="340.9907" y2="514.4432">
			<stop  offset="0.2121" style="stop-color:#000000"/>
			<stop  offset="0.3594" style="stop-color:#0B0B0B"/>
			<stop  offset="0.5939" style="stop-color:#262626"/>
			<stop  offset="0.8496" style="stop-color:#B2B2B2"/>
			<stop  offset="1" style="stop-color:#FFFFFF"/>
		</linearGradient>
		<path id="in_sf_base_2_" class="st65" d="M250.71,497.35c-43.77-6.11-111.41-29.21-111.41-140.32
			c0-66.37,21.61-139.51,159.25-139.51c118.61,0,158.38,61.07,158.38,139.27c0,28.48-4.87,51.18-12.23,69.32
			c-19.99,49.2-61.55,64.76-98.31,70.81C322.03,500.95,279.23,501.32,250.71,497.35z M485.58,357.74
			c0-84.69-39.87-154.81-186.58-154.81c-154.1,0-186.57,84.94-186.57,154.98c0,117.25,78.69,145.7,135.92,152.47
			c28.98,3.42,70.93,3.21,97.78,0.05C402.84,503.8,485.58,475.54,485.58,357.74z"/>
		<linearGradient id="in_sf_base_4_" gradientUnits="userSpaceOnUse" x1="257.3769" y1="202.4249" x2="341.2794" y2="515.5532">
			<stop  offset="0" style="stop-color:#000000"/>
			<stop  offset="0.5636" style="stop-color:#1A1A1A"/>
			<stop  offset="0.6183" style="stop-color:#202020"/>
			<stop  offset="0.7091" style="stop-color:#262626"/>
			<stop  offset="0.8364" style="stop-color:#FFFFFF"/>
			<stop  offset="0.8909" style="stop-color:#FFFFFF"/>
			<stop  offset="1" style="stop-color:#808080"/>
		</linearGradient>
		<path id="in_sf_base_1_" class="st66" d="M250.71,497.35c-43.77-6.11-111.8-29.21-111.41-140.32
			c0.24-68.66,29.05-139.51,159.25-139.51c118.83,0,156.64,61.33,158.38,139.27c0.63,28.04-4.73,50.52-11.98,68.58
			c-20.31,50.61-59.96,65.19-98.56,71.55C322.03,500.95,279.23,501.32,250.71,497.35z M485.58,357.74
			c0-84.69-39.87-154.81-186.58-154.81c-154.1,0-186.57,84.94-186.57,154.98c0,117.25,78.69,146.54,135.92,153.31
			c28.98,3.42,70.83,3.69,97.67,0.53C402.74,505.12,485.58,475.54,485.58,357.74z"/>
		
			<linearGradient id="SVGID_62_" gradientUnits="userSpaceOnUse" x1="547.1515" y1="193.6252" x2="628.3812" y2="496.7785" gradientTransform="matrix(-1 0 0 1 802.334 0)">
			<stop  offset="0" style="stop-color:#000000;stop-opacity:0"/>
			<stop  offset="0.6061" style="stop-color:#1A1A1A"/>
			<stop  offset="0.6637" style="stop-color:#1D1D1D"/>
			<stop  offset="0.7091" style="stop-color:#262626"/>
			<stop  offset="0.8667" style="stop-color:#EEEEEE"/>
			<stop  offset="1" style="stop-color:#DCDCDC;stop-opacity:0"/>
		</linearGradient>
		<path class="st67" d="M299.21,205.42v10.62c-119.3,0.29-160.36,63.43-160.36,143.35c0,71.37,32.77,110.16,67.66,126.38
			c40.05,18.62,86.59,15.35,64.7,23.71c-5.34,2.04-9.8,5.39-29.06,3.14c-56.71-6.65-129.22-34.6-129.22-152.39
			C112.94,275.6,152.76,205.52,299.21,205.42z"/>
		<linearGradient id="out_sf_base_2_" gradientUnits="userSpaceOnUse" x1="358.8291" y1="527.1665" x2="236.9608" y2="192.3361">
			<stop  offset="0.0364" style="stop-color:#000000"/>
			<stop  offset="0.1939" style="stop-color:#000000"/>
			<stop  offset="0.2857" style="stop-color:#343434"/>
			<stop  offset="0.448" style="stop-color:#8A8A8A"/>
			<stop  offset="0.5807" style="stop-color:#C9C9C9"/>
			<stop  offset="0.6771" style="stop-color:#F0F0F0"/>
			<stop  offset="0.7273" style="stop-color:#FFFFFF"/>
			<stop  offset="1" style="stop-color:#4D4D4D"/>
		</linearGradient>
		<path id="out_sf_base_1_" class="st68" d="M505.44,361.19c-0.52,42.99-15.3,92.45-50.37,121.54
			c-36.78,30.52-93.27,43.75-157.16,43.75c-63.33,0-117.98-10.83-159.3-45.57c-32.84-27.61-48.79-76.67-48.79-120.27
			c0-47.5,15.28-97.86,55.14-128.28c38.11-29.09,100.19-38.07,152.71-38.07c58.69,0,115.58,9.6,153.52,39.88
			C490.61,265.65,506.03,312.72,505.44,361.19z M484.71,359.62c0-78.71-45.93-154.8-186.56-154.8
			c-154.11,0-186.58,84.94-186.58,154.98c0,119.5,81.74,146.76,139.19,152.83c31.04,3.28,62.12,3.65,96.03-0.12
			C382.53,508.54,484.71,491.17,484.71,359.62z"/>
		<linearGradient id="SVGID_63_" gradientUnits="userSpaceOnUse" x1="150.305" y1="345.0091" x2="195.6723" y2="186.7943">
			<stop  offset="0" style="stop-color:#FFFFFF;stop-opacity:0"/>
			<stop  offset="0.4606" style="stop-color:#FFFFFF"/>
			<stop  offset="0.5396" style="stop-color:#F0F0F0;stop-opacity:0.8536"/>
			<stop  offset="1" style="stop-color:#9A9A9A;stop-opacity:0"/>
		</linearGradient>
		<path class="st69" d="M115.89,320.77c7.14-20.42,16.11-54.23,42.41-77.57c29.64-26.3,81.76-35.6,97.05-37.37
			c-5.97-3.49-9.11-4.24-17.9-7.06c-42.87,6.28-79.25,17.99-105.2,45.23c-27.39,28.75-35.35,52.21-40.23,84.29
			C100.98,325,104.59,324.22,115.89,320.77z"/>
		<linearGradient id="in_up_right_2_" gradientUnits="userSpaceOnUse" x1="173.6927" y1="235.12" x2="423.3902" y2="235.12">
			<stop  offset="0" style="stop-color:#000000"/>
			<stop  offset="3.464977e-03" style="stop-color:#020202;stop-opacity:0.9965"/>
			<stop  offset="0.0735" style="stop-color:#272727;stop-opacity:0.9265"/>
			<stop  offset="0.1469" style="stop-color:#464646;stop-opacity:0.8531"/>
			<stop  offset="0.2233" style="stop-color:#5E5E5E;stop-opacity:0.7767"/>
			<stop  offset="0.3043" style="stop-color:#6F6F6F;stop-opacity:0.6957"/>
			<stop  offset="0.3928" style="stop-color:#797979;stop-opacity:0.6072"/>
			<stop  offset="0.503" style="stop-color:#7C7C7C;stop-opacity:0.497"/>
			<stop  offset="1" style="stop-color:#000000"/>
		</linearGradient>
		<path id="in_up_right_1_" class="st70" d="M296.67,211.8c49.7,0,97.04,8.48,126.72,46.63c-45.47-56.29-199.05-57.62-249.7,0
			C203.38,224.58,246.95,211.8,296.67,211.8z"/>
		
			<linearGradient id="SVGID_64_" gradientUnits="userSpaceOnUse" x1="307.1382" y1="436.7941" x2="295.2265" y2="469.5213" gradientTransform="matrix(-1 0 0 1 765 0)">
			<stop  offset="0.2364" style="stop-color:#000000;stop-opacity:0"/>
			<stop  offset="0.4424" style="stop-color:#000000"/>
			<stop  offset="0.6909" style="stop-color:#000000;stop-opacity:0.7394"/>
			<stop  offset="1" style="stop-color:#000000;stop-opacity:0"/>
		</linearGradient>
		<path class="st71" d="M490.53,433.06c2.59-5.77,2.42-5.35,3.53-8.99c0.48-1.6-0.43,0.96-1.5,2.99c-1.38,2.64-1.09,2.44-3.21,5.43
			c-2.17,3.03-2.82,3.35-6.83,5.88c-3.21,2.03-7.2,3.34-13.55,6.83c-1.64,0.9-2.42,1.54-5.77,5.89c-2.41,3.11-4.98,6.69-6.31,8.22
			c-4.13,4.76-14.49,13.95-20.5,19.21c-5.24,4.57-4.08,4.49,3.33,1.93c6.64-2.29,16.47-6.38,22.29-8.79
			c3.67-1.51,6.69-4.07,7.9-5.49C477.1,457.8,485.51,444.23,490.53,433.06z"/>
		
			<linearGradient id="SVGID_65_" gradientUnits="userSpaceOnUse" x1="224.2197" y1="183.082" x2="122.9505" y2="365.7766" gradientTransform="matrix(1 0 0 1 -11.166 0)">
			<stop  offset="0" style="stop-color:#FFFFFF;stop-opacity:0"/>
			<stop  offset="0.3697" style="stop-color:#FFFFFF"/>
			<stop  offset="1" style="stop-color:#808080;stop-opacity:0"/>
		</linearGradient>
		<path class="st72" d="M112.44,359.47c0-37.88,13.41-87.22,45.7-115.87c29.64-26.3,80.35-36.15,95.64-37.92
			c-5.96-3.49-9.11-4.24-17.9-7.06c-42.87,6.28-79.26,18.76-105.22,46c-29.72,31.19-40.59,73.54-41.31,108.72
			C96.9,355.54,102.55,357.11,112.44,359.47z"/>
		<linearGradient id="SVGID_66_" gradientUnits="userSpaceOnUse" x1="405.4867" y1="238.1804" x2="465.2793" y2="238.1804">
			<stop  offset="0" style="stop-color:#000000"/>
			<stop  offset="0.0896" style="stop-color:#000000;stop-opacity:0.9104"/>
			<stop  offset="1" style="stop-color:#000000;stop-opacity:0"/>
		</linearGradient>
		<path class="st73" d="M405.49,224.05c8.81,1.2,40.47,8.08,51.2,14.6c10.21,6.19,8.48,6.44,8.48,6.44l-19.01,7.22
			C446.16,252.31,432.81,237.39,405.49,224.05z"/>
		
			<linearGradient id="SVGID_67_" gradientUnits="userSpaceOnUse" x1="493.6776" y1="222.3239" x2="493.6776" y2="261.0206" gradientTransform="matrix(-1 0 0 1 650 0)">
			<stop  offset="0" style="stop-color:#000000"/>
			<stop  offset="1" style="stop-color:#000000;stop-opacity:0"/>
		</linearGradient>
		<path class="st74" d="M189,223.58c-18.85,4.47-44.18,10.92-54.18,17.42c-4.71,3.06-17.68,20.01-17.68,20.01l18.38-15.3
			c8.96-2.35,9.42-2.83,16.26-4.47c7.61-1.83,11.95-2.42,20.33-8.04C180.52,227.58,207.85,219.11,189,223.58z"/>
		
			<linearGradient id="SVGID_68_" gradientUnits="userSpaceOnUse" x1="473.8487" y1="451.2578" x2="456.9758" y2="497.6158" gradientTransform="matrix(1 0 0 1 -299.0254 0)">
			<stop  offset="0.0485" style="stop-color:#000000;stop-opacity:0"/>
			<stop  offset="0.2606" style="stop-color:#000000"/>
			<stop  offset="0.5333" style="stop-color:#000000;stop-opacity:0.8517"/>
			<stop  offset="0.5997" style="stop-color:#040404;stop-opacity:0.8155"/>
			<stop  offset="0.6665" style="stop-color:#101010;stop-opacity:0.7791"/>
			<stop  offset="0.7333" style="stop-color:#242424;stop-opacity:0.7427"/>
			<stop  offset="0.7394" style="stop-color:#262626;stop-opacity:0.7394"/>
			<stop  offset="0.7412" style="stop-color:#252525;stop-opacity:0.7344"/>
			<stop  offset="0.7705" style="stop-color:#141414;stop-opacity:0.6512"/>
			<stop  offset="0.8068" style="stop-color:#090909;stop-opacity:0.5481"/>
			<stop  offset="0.858" style="stop-color:#020202;stop-opacity:0.403"/>
			<stop  offset="1" style="stop-color:#000000;stop-opacity:0"/>
		</linearGradient>
		<path class="st75" d="M104.27,427.69c1.26,2.66,2.49,6.64,7.37,8.8c3.79,1.69,6.81,2.94,10.6,4.42
			c6.08,2.37,10.74,10.48,14.7,15.71c3.89,5.12,16.28,16.58,22.46,21.63c9.23,7.54,26.25,17.71,39.25,23
			c0.94,0.38,36.45,15.15,32.51,18.61c-1.14,1.01-33.82-8.26-35.34-8.71c-28.01-8.51-57.63-25.5-77.34-53.78
			c-2.66-3.83-12.48-21.67-14.69-28.89C102.41,423.91,102.68,424.29,104.27,427.69z"/>
		
			<linearGradient id="SVGID_69_" gradientUnits="userSpaceOnUse" x1="176.2002" y1="333.561" x2="218.0663" y2="187.5567" gradientTransform="matrix(-1 0 0 1 618 0)">
			<stop  offset="0" style="stop-color:#FFFFFF;stop-opacity:0"/>
			<stop  offset="0.09" style="stop-color:#E3E3E3;stop-opacity:0.1953"/>
			<stop  offset="0.2828" style="stop-color:#9C9C9C;stop-opacity:0.6139"/>
			<stop  offset="0.4606" style="stop-color:#565656"/>
			<stop  offset="0.4727" style="stop-color:#404040"/>
			<stop  offset="0.5792" style="stop-color:#444444;stop-opacity:0.7981"/>
			<stop  offset="0.6903" style="stop-color:#505050;stop-opacity:0.5875"/>
			<stop  offset="0.8034" style="stop-color:#656565;stop-opacity:0.373"/>
			<stop  offset="0.9174" style="stop-color:#828282;stop-opacity:0.1569"/>
			<stop  offset="0.9717" style="stop-color:#939393;stop-opacity:0.054"/>
			<stop  offset="1" style="stop-color:#9A9A9A;stop-opacity:0"/>
		</linearGradient>
		<path class="st76" d="M480.72,321.23c-7.15-20.41-16.11-54.22-42.41-77.55c-29.64-26.3-81.75-35.6-97.04-37.37
			c5.96-3.49,9.1-4.24,17.9-7.06c42.87,6.27,79.26,18.76,105.22,46c21.79,22.88,31.35,49.61,36.27,71.44
			C493.12,318.88,490.6,318.88,480.72,321.23z"/>
		
			<linearGradient id="SVGID_70_" gradientUnits="userSpaceOnUse" x1="674.0704" y1="261.4933" x2="710.9855" y2="261.4933" gradientTransform="matrix(1 0 0 1 -241.0625 0)">
			<stop  offset="0" style="stop-color:#000000"/>
			<stop  offset="0.3075" style="stop-color:#060606"/>
			<stop  offset="0.7008" style="stop-color:#151515"/>
			<stop  offset="1" style="stop-color:#262626"/>
		</linearGradient>
		<path class="st77" d="M455.15,265.55l-16.59,12.91l-5.55-8.39c4.01-5.53,10.38-15.34,11.14-16.39c0.79-1.05,2.7-2.49,4.28-3.01
			c1.59-0.53,8.61-4.03,14.28-6.15l7.21,8.44L455.15,265.55z"/>
		
			<linearGradient id="SVGID_71_" gradientUnits="userSpaceOnUse" x1="777.4237" y1="261.9747" x2="814.3305" y2="261.9747" gradientTransform="matrix(-1 0 0 1 940.75 0)">
			<stop  offset="0" style="stop-color:#000000"/>
			<stop  offset="0.3075" style="stop-color:#060606"/>
			<stop  offset="0.7008" style="stop-color:#151515"/>
			<stop  offset="1" style="stop-color:#262626"/>
		</linearGradient>
		<path class="st78" d="M140.67,266.56l16.59,12.92l6.07-9.62c-4-5.53-10.36-15.34-11.14-16.4c-0.78-1.04-2.7-2.48-4.28-3.01
			c-1.58-0.52-9.17-3.86-14.81-5.98l-6.66,8.27L140.67,266.56z"/>
		<path class="st9" d="M141.61,326.98c-0.08,0-0.16-0.04-0.2-0.12c-0.05-0.1-5.35-9.82-7.63-15.17c-2.28-5.35-7.19-19-7.24-19.13
			c-0.04-0.13,0.02-0.26,0.14-0.3c0.13-0.05,0.26,0.02,0.31,0.14c0.05,0.14,4.96,13.77,7.24,19.11c2.28,5.33,7.55,15.03,7.6,15.13
			c0.07,0.12,0.03,0.26-0.09,0.32C141.68,326.98,141.65,326.98,141.61,326.98z"/>
		<path class="st9" d="M140.82,326.98c-0.08,0-0.16-0.04-0.2-0.12c-0.05-0.1-5.35-9.82-7.63-15.17c-2.28-5.35-7.19-19-7.24-19.13
			c-0.04-0.13,0.02-0.26,0.14-0.3c0.13-0.05,0.26,0.02,0.31,0.14c0.05,0.14,4.96,13.77,7.24,19.11c2.28,5.33,7.55,15.03,7.6,15.13
			c0.07,0.12,0.03,0.26-0.09,0.32C140.9,326.98,140.86,326.98,140.82,326.98z"/>
		
			<linearGradient id="SVGID_72_" gradientUnits="userSpaceOnUse" x1="106.0964" y1="262.6578" x2="144.3679" y2="262.6578" gradientTransform="matrix(1 0 0 1 19.125 0)">
			<stop  offset="0" style="stop-color:#B2B2B2"/>
			<stop  offset="2.667885e-03" style="stop-color:#B1B1B1"/>
			<stop  offset="0.2557" style="stop-color:#676767"/>
			<stop  offset="0.4368" style="stop-color:#383838"/>
			<stop  offset="0.5273" style="stop-color:#262626"/>
		</linearGradient>
		<path class="st79" d="M163.49,269.93c0,0-2.41,3.41-3.55,5.28c-1.05,1.72-3.1,5.43-3.1,5.43s-9.83-6.28-17.84-13.35
			c-7.39-6.51-11.05-10.78-13.79-14.13c1.48-1.88,1.49-1.87,7.68-8.48c0,0-0.29,0.84,0.99,2.33c3.99,4.65,19.92,18.18,26.62,22.49
			C162.29,270.65,163.49,269.93,163.49,269.93z"/>
		
			<linearGradient id="SVGID_73_" gradientUnits="userSpaceOnUse" x1="-2244.8064" y1="262.5556" x2="-2206.3745" y2="262.5556" gradientTransform="matrix(-1 0 0 1 -1774.3792 0)">
			<stop  offset="0" style="stop-color:#B2B2B2"/>
			<stop  offset="2.667885e-03" style="stop-color:#B1B1B1"/>
			<stop  offset="0.2557" style="stop-color:#676767"/>
			<stop  offset="0.4368" style="stop-color:#383838"/>
			<stop  offset="0.5273" style="stop-color:#262626"/>
		</linearGradient>
		<path class="st80" d="M432,269.72c0,0,2.39,3.46,3.53,5.32c1.05,1.72,3.34,5.55,3.34,5.55s9.4-5.98,17.42-13.05
			c7.39-6.51,11.41-11.31,14.15-14.67c-1.48-1.88-3.71-4.21-7.72-8.35c0,0,0.16,0.44-1.12,1.93c-3.99,4.65-20.37,18.74-27.07,23.05
			C432.74,270.65,432,269.72,432,269.72z"/>
		<linearGradient id="wing_low_sf_2_" gradientUnits="userSpaceOnUse" x1="135.6833" y1="370.7128" x2="462.3343" y2="370.7128">
			<stop  offset="0" style="stop-color:#000000"/>
			<stop  offset="0.0332" style="stop-color:#171717"/>
			<stop  offset="0.0963" style="stop-color:#3C3C3C"/>
			<stop  offset="0.1623" style="stop-color:#5B5B5B"/>
			<stop  offset="0.2312" style="stop-color:#737373"/>
			<stop  offset="0.3041" style="stop-color:#838383"/>
			<stop  offset="0.3838" style="stop-color:#8D8D8D"/>
			<stop  offset="0.483" style="stop-color:#919191"/>
			<stop  offset="0.497" style="stop-color:#FFFFFF;stop-opacity:0.7679"/>
			<stop  offset="0.498" style="stop-color:#000000;stop-opacity:0.9"/>
			<stop  offset="0.5163" style="stop-color:#090909;stop-opacity:0.9342"/>
			<stop  offset="0.546" style="stop-color:#212121;stop-opacity:0.9897"/>
			<stop  offset="0.5515" style="stop-color:#262626"/>
			<stop  offset="0.5573" style="stop-color:#323232"/>
			<stop  offset="0.5654" style="stop-color:#393939"/>
			<stop  offset="0.5879" style="stop-color:#3B3B3B"/>
			<stop  offset="1" style="stop-color:#000000"/>
		</linearGradient>
		<path id="wing_low_sf_1_" class="st81" d="M356.67,333.25c-0.19,0.09-0.36,0.15-0.49,0.24c-9.9,4.94-57.57,57.23-58.75,58.4
			c-1.16,1.18-52.14-40.11-53.08-41.77c-0.94-1.65-87.71-32.89-87.71-32.89l-20.97-1.88c0,0,1.41,5.41,6.83,12.95
			c21.79,13.77,61.51,20.98,87.29,32.59c27.19,12.25,47.78,34.01,55.71,52.55c7.7,18.01,7.88,22.14,12.48,22.14
			c4.61,0,6.99-11.04,10.26-18.02c15.47-33.02,42.37-55.99,100.11-71.57c40.47-10.92,45.35-19.72,45.35-19.72l8.64-20.41
			C462.33,305.85,368.89,327.87,356.67,333.25z"/>
		
			<linearGradient id="SVGID_74_" gradientUnits="userSpaceOnUse" x1="203.1063" y1="362.276" x2="62.0899" y2="334.8652" gradientTransform="matrix(-1 0 0 1 342.7148 0)">
			<stop  offset="0" style="stop-color:#000000"/>
			<stop  offset="0.5569" style="stop-color:#181818"/>
			<stop  offset="1" style="stop-color:#262626"/>
		</linearGradient>
		<path class="st82" d="M132.42,309.61c3.47,9.11,8.57,17.71,8.57,17.71s11.71,6.7,24.57,10.94c17.85,5.9,38.58,10.2,54.36,13.81
			c18.83,4.31,30.01,9.35,42.79,17.95c20.53,13.82,24.75,24.2,31.72,35.9c-3.93-9.88-4.21-16.52-17.89-33.51
			c-19.75-24.54-32.44-30.22-60.77-40.66c-9.75-3.6-23.32-8.96-39.74-15.07c-16.41-6.12-37.51-16.93-50.24-25.47
			C125.64,291.1,129.55,302.13,132.42,309.61z"/>
		<linearGradient id="SVGID_75_" gradientUnits="userSpaceOnUse" x1="297.7708" y1="330.7576" x2="471.5809" y2="330.7576">
			<stop  offset="0" style="stop-color:#000000"/>
			<stop  offset="0.031" style="stop-color:#292929"/>
			<stop  offset="0.0661" style="stop-color:#4F4F4F"/>
			<stop  offset="0.1052" style="stop-color:#717171"/>
			<stop  offset="0.1478" style="stop-color:#8D8D8D"/>
			<stop  offset="0.1952" style="stop-color:#A4A4A4"/>
			<stop  offset="0.2495" style="stop-color:#B6B6B6"/>
			<stop  offset="0.3148" style="stop-color:#C3C3C3"/>
			<stop  offset="0.4024" style="stop-color:#CACACA"/>
			<stop  offset="0.6061" style="stop-color:#CCCCCC"/>
			<stop  offset="0.8242" style="stop-color:#FFFFFF"/>
		</linearGradient>
		<path class="st83" d="M322.7,344.24c8-8.77,15.61-14.99,28.4-22.81c23.56-14.41,55.12-20.22,87.73-40.9
			c19.84-12.57,31.6-27.66,31.6-27.66s0.83,6.71,1.09,14.61c0.15,4.43,0.04,9-0.53,14c-0.53,4.63-1.19,7.16-1.29,7.23
			c-12.92,8.67-29.03,20.27-45.67,26.48c-16.66,6.21-32.29,11.62-42.17,15.3c-42.7,15.99-61.27,40.21-75.21,65.18
			c-6.47,11.61-8.88,13.09-8.88,12.96c0.03-0.48,0.71-27.59,0.71-31.57c0.31,0,1.6-0.87,2.87-3.08
			C307.23,363.73,313.33,354.51,322.7,344.24z"/>
		<linearGradient id="SVGID_76_" gradientUnits="userSpaceOnUse" x1="371.1296" y1="321.2909" x2="396.7755" y2="405.1747">
			<stop  offset="0" style="stop-color:#000000"/>
			<stop  offset="0.0304" style="stop-color:#000000"/>
			<stop  offset="0.3394" style="stop-color:#000000"/>
			<stop  offset="0.4177" style="stop-color:#090909"/>
			<stop  offset="0.5697" style="stop-color:#171717"/>
			<stop  offset="0.8061" style="stop-color:#000000"/>
		</linearGradient>
		<path class="st84" d="M470.09,291.04c-12.82,8.55-34.92,18.77-51.44,24.89c-16.54,6.12-26.27,8.81-36.08,12.4
			c-27.66,10.13-45.24,20.69-65.63,45.84c-13.79,17-15.94,26.1-19.17,33.68c0,4.39,0,26.98,0,27.45c1.24,0,2.14-0.67,2.8-1.72
			c0.46-0.72,0.2-7.53,0.2-13.36c0-4.42,0.03-5.64,2.4-9.98c1.84-3.37,3.96-7.16,5.38-9.38c11.59-17.87,33.27-30.63,54.89-40.47
			c19.21-8.75,47.26-14.37,65.8-21.24c13.06-4.84,24.89-11.14,24.89-11.14s4.11-7.29,8.12-16.45
			C465.63,303.84,470.26,290.92,470.09,291.04z"/>
		
			<linearGradient id="SVGID_77_" gradientUnits="userSpaceOnUse" x1="44.1002" y1="330.6341" x2="218.8269" y2="330.6341" gradientTransform="matrix(-1 0 0 1 342.7148 0)">
			<stop  offset="0" style="stop-color:#000000"/>
			<stop  offset="0.0381" style="stop-color:#1F1F1F"/>
			<stop  offset="0.0845" style="stop-color:#3E3E3E"/>
			<stop  offset="0.1299" style="stop-color:#545454"/>
			<stop  offset="0.1731" style="stop-color:#616161"/>
			<stop  offset="0.2121" style="stop-color:#666666"/>
			<stop  offset="0.2408" style="stop-color:#737373"/>
			<stop  offset="0.3455" style="stop-color:#9E9E9E"/>
			<stop  offset="0.4522" style="stop-color:#C1C1C1"/>
			<stop  offset="0.5594" style="stop-color:#DCDCDC"/>
			<stop  offset="0.6676" style="stop-color:#F0F0F0"/>
			<stop  offset="0.7774" style="stop-color:#FBFBFB"/>
			<stop  offset="0.8909" style="stop-color:#FFFFFF"/>
			<stop  offset="1" style="stop-color:#ADADAD"/>
		</linearGradient>
		<path class="st85" d="M294.3,374.3c1.86,3.34,3.54,2.91,4.2,2.91c0,4.94,0.1,30.79,0.11,31.28c0.02,0.14-0.55-1.66-7.01-13.28
			c-25.74-46.09-50.5-54.94-73.75-63.64c-9.86-3.69-28.22-10.75-44.87-16.95c-16.66-6.21-35.38-16.74-48.34-25.36
			c-0.75-0.5,0.19-3.2-0.34-7.82c-0.56-5-0.44-10.55-0.3-14.98c0.26-7.9,1.86-13.66,1.86-13.66s11.1,15.2,30.81,27.75
			c12.03,7.67,24.32,13.3,38.68,19.29c18.24,7.6,33.01,12.08,50.93,23.04c14.37,8.79,21.86,15.56,29.58,24.27
			C285.56,358.05,290.71,367.81,294.3,374.3z"/>
		<path class="st86" d="M258.75,331.65c11.78,12.4,17.49,18.94,25.65,34.64c5.62,10.77,6.76,11.62,13.82,38.94l-1.79-26.92
			c0,0-8.6-15.3-14.73-23C271.71,342.76,269.57,340.17,258.75,331.65z"/>
		<polygon class="st17" points="297.75,403.63 297.75,378.54 298.66,378.54 		"/>
		<path class="st15" d="M293.67,371.8c1.85,3.41,3.15,4.65,4.09,4.65v0l0,0c0.93,0,2.24-1.24,4.09-4.65
			c12.48-23.05,34.09-47.15,70.84-61.71c21.54-8.53,44.28-17,64.81-29.88c-3.49-6.12-7.43-11.78-11.81-17
			c-25.21-30.08-65.89-45.07-127.93-45.14c0,0,0,0-0.01,0c0,0,0,0-0.01,0c-62.03,0.06-102.72,15.05-127.93,45.14
			c-4.38,5.22-8.32,10.88-11.81,17c20.53,12.88,43.27,21.35,64.81,29.88C259.58,324.65,281.18,348.75,293.67,371.8z"/>
		<path class="st15" d="M304.56,428.4c-1.74,5.2-3.49,8-6.8,8l0,0v0c-3.31,0-5.06-2.8-6.8-8c-15.48-46.14-52.09-66.78-91.42-78.05
			c-17.67-5.06-36.92-10.14-57.76-21.46c-1.6,10.31-2.42,21.46-2.42,33.52c0,23.16,6.09,79.11,46.62,109.77
			c24.74,18.72,57.91,27.4,111.78,27.48v0c0,0,0,0,0.01,0c0,0,0,0,0.01,0v0c53.87-0.08,87.07-8.72,111.78-27.48
			c40.41-30.67,46.62-86.62,46.62-109.77c0-12.06-0.82-23.21-2.42-33.52c-20.84,11.32-40.09,16.4-57.76,21.46
			C356.65,361.62,320.04,382.26,304.56,428.4z"/>
		<path d="M453.74,328.89c1.6,10.31,2.42,21.46,2.42,33.52c0,23.16-6.21,79.11-46.62,109.77c-24.71,18.75-57.91,27.4-111.78,27.48v0
			c0,0,0,0-0.01,0c0,0,0,0-0.01,0v0c-53.87-0.08-87.04-8.76-111.78-27.48c-40.53-30.67-46.62-86.62-46.62-109.77
			c0-12.06,0.82-23.21,2.42-33.52c-0.16-0.09-0.32-0.17-0.48-0.26c-1.63,10.5-2.44,21.74-2.44,33.79
			c0,12.48,2.26,76.45,46.82,110.17c25.43,19.25,58.95,27.49,112.06,27.58l0.02,0c53.2-0.08,86.72-8.33,112.08-27.58
			c44.56-33.82,46.82-97.71,46.82-110.17c0-12.04-0.81-23.29-2.44-33.79C454.06,328.71,453.9,328.8,453.74,328.89z"/>
		<path d="M169.82,263.21c25.21-30.08,65.89-45.07,127.93-45.14c0,0,0,0,0.01,0c0,0,0,0,0.01,0
			c62.03,0.06,102.72,15.05,127.93,45.14c4.38,5.22,8.32,10.88,11.81,17c0.14-0.09,0.29-0.18,0.43-0.27
			c-3.46-6.07-7.41-11.74-11.86-17.05c-25.85-30.85-66.62-45.25-128.31-45.32h-0.01c-61.69,0.06-102.46,14.46-128.31,45.32
			c-4.44,5.3-8.39,10.98-11.86,17.05c0.14,0.09,0.29,0.18,0.43,0.27C161.5,274.09,165.44,268.43,169.82,263.21z"/>
		<path d="M399.61,348.8c-1.26,0.36-2.52,0.72-3.76,1.07c-22.55,6.46-40.48,14.98-54.82,26.03c-8.36,6.44-15.62,13.89-21.58,22.13
			c-6.45,8.92-11.62,19.08-15.35,30.21c-1.87,5.58-3.59,7.66-6.33,7.66l0,0v0c-2.74,0-4.46-2.08-6.33-7.66
			c-3.73-11.13-8.9-21.29-15.35-30.21c-5.97-8.24-13.23-15.69-21.58-22.13c-14.34-11.06-32.28-19.57-54.82-26.03
			c-1.25-0.36-2.5-0.71-3.76-1.07c-16.61-4.73-34.64-9.87-54.05-20.44c-0.03,0.17-0.05,0.35-0.08,0.53
			c20.84,11.32,40.09,16.4,57.76,21.46c39.33,11.27,75.94,31.91,91.42,78.05c1.74,5.2,3.49,8,6.8,8v0l0,0c3.31,0,5.06-2.8,6.8-8
			c15.48-46.14,52.09-66.78,91.42-78.05c17.67-5.06,36.92-10.14,57.76-21.46c-0.03-0.18-0.05-0.35-0.08-0.53
			C434.25,338.93,416.22,344.07,399.61,348.8z"/>
		<path d="M453.74,328.89c0.16-0.09,0.32-0.17,0.48-0.26c-0.03-0.18-0.06-0.35-0.08-0.53c-0.16,0.09-0.32,0.18-0.48,0.26
			C453.69,328.54,453.71,328.71,453.74,328.89z"/>
		<path d="M141.85,328.36c-0.16-0.09-0.32-0.18-0.48-0.26c-0.03,0.18-0.06,0.35-0.08,0.53c0.16,0.09,0.32,0.18,0.48,0.26
			C141.8,328.71,141.82,328.54,141.85,328.36z"/>
		<path d="M158.02,280.21c-0.14-0.09-0.29-0.18-0.43-0.27c-0.08,0.14-0.16,0.28-0.24,0.43c0.14,0.09,0.29,0.18,0.43,0.27
			C157.85,280.5,157.93,280.35,158.02,280.21z"/>
		<path d="M437.74,280.64c0.14-0.09,0.29-0.18,0.43-0.27c-0.08-0.14-0.16-0.28-0.24-0.43c-0.14,0.09-0.29,0.18-0.43,0.27
			C437.57,280.35,437.65,280.5,437.74,280.64z"/>
		<path class="st15" d="M395.84,349.87c-22.55,6.46-40.48,14.98-54.82,26.03c-8.36,6.44-15.62,13.89-21.58,22.13
			c-6.45,8.92-11.62,19.08-15.35,30.21c-1.87,5.58-3.59,7.66-6.33,7.66l0,0v0c-2.74,0-4.46-2.08-6.33-7.66
			c-3.73-11.13-8.9-21.29-15.35-30.21c-5.97-8.24-13.23-15.69-21.58-22.13c-14.34-11.06-32.28-19.57-54.82-26.03
			c-1.25-0.36-2.5-0.71-3.76-1.07c-16.75-4.77-34.94-9.95-54.53-20.7c-1.68,10.65-2.52,22.07-2.52,34.31
			c0,12.48,2.26,76.45,46.82,110.17c25.43,19.25,58.95,27.49,112.06,27.58l0,0l0.02,0c53.2-0.08,86.72-8.33,112.08-27.58
			c44.56-33.82,46.82-97.71,46.82-110.17c0-12.24-0.84-23.66-2.52-34.31c-19.59,10.74-37.78,15.93-54.53,20.7
			C398.34,349.16,397.09,349.52,395.84,349.87z"/>
		<path class="st15" d="M297.75,217.58c-61.69,0.06-102.46,14.46-128.31,45.32c-4.55,5.43-8.58,11.25-12.1,17.47
			c3.22,2.04,6.57,4.01,10.07,5.94c15.94,8.77,32.85,15.43,49.21,21.87c2.02,0.79,4.02,1.58,6.02,2.38
			c31.5,12.48,55.25,33.17,70.59,61.49c1.81,3.35,3.25,4.91,4.52,4.91v0l0,0c1.27,0,2.71-1.56,4.52-4.91
			c15.33-28.32,39.08-49.01,70.59-61.49c2-0.79,4-1.58,6.02-2.38c16.36-6.44,33.27-13.1,49.21-21.87c3.5-1.93,6.85-3.9,10.07-5.94
			c-3.52-6.23-7.55-12.05-12.1-17.47C400.22,232.04,359.44,217.64,297.75,217.58z"/>
		<g>
			<path class="st87" d="M167.18,286.74c15.97,8.79,32.9,15.45,49.27,21.9c2.01,0.79,4.02,1.58,6.02,2.38
				c31.39,12.44,55.05,33.05,70.33,61.26c1.94,3.58,3.47,5.17,4.96,5.17c1.49,0,3.02-1.59,4.96-5.17
				c15.28-28.21,38.94-48.83,70.33-61.26c1.97-0.78,3.96-1.56,5.95-2.35l0.07-0.03c16.37-6.45,33.3-13.11,49.27-21.9
				c3.5-1.93,6.86-3.9,10.08-5.94c0.14-0.09,0.28-0.18,0.42-0.27c-0.08-0.14-0.16-0.29-0.24-0.43c-3.53-6.25-7.58-12.08-12.14-17.53
				c-25.95-30.97-66.84-45.43-128.7-45.49c-61.84,0.06-102.74,14.52-128.69,45.49c-4.56,5.44-8.61,11.28-12.14,17.52
				c-0.08,0.14-0.16,0.29-0.24,0.43c0.14,0.09,0.28,0.18,0.42,0.27C160.32,282.84,163.68,284.81,167.18,286.74z M169.44,262.89
				c25.85-30.85,66.62-45.25,128.31-45.32c61.7,0.06,102.47,14.46,128.32,45.32c4.55,5.43,8.58,11.25,12.1,17.47
				c-3.22,2.04-6.57,4.01-10.07,5.94c-15.94,8.77-32.85,15.43-49.21,21.87c-2.02,0.79-4.02,1.58-6.02,2.38
				c-31.5,12.48-55.25,33.17-70.59,61.49c-1.81,3.35-3.25,4.91-4.52,4.91l0,0v0c-1.27,0-2.71-1.56-4.52-4.91
				c-15.33-28.32-39.08-49.01-70.59-61.49c-2-0.79-4-1.58-6.02-2.38c-16.36-6.44-33.27-13.1-49.21-21.87
				c-3.5-1.93-6.85-3.9-10.07-5.94C160.86,274.14,164.89,268.32,169.44,262.89z"/>
			<path class="st87" d="M454.6,327.85c-0.03-0.17-0.05-0.35-0.08-0.52c-0.15,0.09-0.31,0.17-0.46,0.25
				c-19.61,10.78-37.82,15.97-54.58,20.74c-1.26,0.36-2.52,0.72-3.76,1.07c-22.61,6.48-40.59,15.02-54.99,26.12
				c-8.39,6.47-15.69,13.95-21.68,22.23c-6.48,8.96-11.67,19.17-15.42,30.34c-1.79,5.34-3.38,7.32-5.86,7.32
				c-2.48,0-4.07-1.98-5.86-7.32c-3.75-11.18-8.94-21.38-15.42-30.34c-5.99-8.28-13.29-15.76-21.68-22.23
				c-14.39-11.09-32.38-19.64-54.99-26.12c-1.25-0.36-2.5-0.71-3.76-1.07c-16.76-4.77-34.97-9.96-54.58-20.74
				c-0.15-0.08-0.31-0.17-0.46-0.25c-0.03,0.17-0.06,0.35-0.08,0.52c-1.7,10.72-2.55,22.23-2.55,34.57
				c0,12.52,2.27,76.7,47.01,110.57c25.53,19.32,59.13,27.6,112.36,27.68l0.03,0l0,0c53.32-0.08,86.93-8.36,112.38-27.68
				c44.75-33.96,47.01-98.06,47.01-110.57C457.15,350.07,456.3,338.57,454.6,327.85z M409.84,472.58
				c-25.37,19.25-58.89,27.5-112.08,27.58l-0.02,0l0,0c-53.11-0.08-86.63-8.33-112.06-27.58c-44.56-33.72-46.82-97.69-46.82-110.17
				c0-12.24,0.84-23.66,2.52-34.31c19.59,10.74,37.78,15.93,54.53,20.7c1.26,0.36,2.52,0.72,3.76,1.07
				c22.55,6.46,40.48,14.98,54.82,26.03c8.36,6.44,15.62,13.89,21.58,22.13c6.45,8.92,11.62,19.08,15.35,30.21
				c1.87,5.58,3.59,7.66,6.33,7.66v0l0,0c2.74,0,4.46-2.08,6.33-7.66c3.73-11.13,8.9-21.29,15.35-30.21
				c5.97-8.24,13.23-15.69,21.58-22.13c14.34-11.06,32.28-19.57,54.82-26.03c1.25-0.36,2.5-0.71,3.76-1.07
				c16.75-4.77,34.94-9.95,54.53-20.7c1.68,10.65,2.52,22.07,2.52,34.31C456.65,374.88,454.4,438.77,409.84,472.58z"/>
		</g>
		<path class="st88" d="M125.12,253.7c0.37-1.65,0.82-1.41,0.53-0.06c-0.95,4.4-1.39,12.87-1.23,21.43
			c0.12,6.14,1.38,12.7,1.38,12.7c-0.79-0.06-1.92,0.18-2.24,1.22C122.58,279.1,122.05,267.45,125.12,253.7z"/>
		<path class="st89" d="M470.91,254.26c-0.37-1.65-0.82-1.41-0.53-0.06c0.95,4.4,1.21,12.78,1.04,21.35
			c-0.12,6.14-1.64,12.82-1.64,12.82c0.79-0.06,1.87,1.03,2.19,2.07C472.94,280.55,473.98,268.01,470.91,254.26z"/>
		<path d="M506.68,358.76c0,27.46-6.8,97.47-62.05,133.59c-33.09,21.63-75.81,35.62-146.86,35.72v0c0,0-0.01,0-0.01,0
			c0,0-0.01,0-0.01,0v0c-71.05-0.1-113.77-14.08-146.86-35.72c-55.26-36.12-62.06-106.13-62.06-133.59
			c0-49.56,15.61-86.45,40.19-112.83c33.25-35.68,86.91-52.04,168.73-52.11l0,0c0,0,0.01,0,0.01,0c0,0,0.01,0,0.01,0l0,0
			c81.82,0.08,135.48,16.44,168.73,52.11C491.16,272.41,506.68,309.04,506.68,358.76z M297.75,527.58L297.75,527.58
			c34.03-0.05,62.66-3.24,87.55-9.77c21.88-5.74,41.2-14.2,59.05-25.87c57.37-37.5,61.83-111.42,61.83-133.18
			c0-23.86-3.64-45.71-10.81-64.96c-6.66-17.86-16.5-33.85-29.25-47.53c-16.68-17.9-38.25-30.75-65.93-39.27
			c-27.6-8.5-61.1-12.65-102.45-12.68c-41.33,0.04-74.84,4.19-102.43,12.68c-27.68,8.52-49.25,21.37-65.93,39.27
			c-12.7,13.63-22.53,29.63-29.21,47.55c-7.2,19.31-10.85,41.16-10.85,64.94c0,21.76,4.46,95.67,61.83,133.18
			c17.85,11.67,37.17,20.13,59.05,25.87C235.1,524.34,263.73,527.53,297.75,527.58L297.75,527.58z"/>
		<linearGradient id="SVGID_78_" gradientUnits="userSpaceOnUse" x1="203.7952" y1="196.7929" x2="391.886" y2="522.5757">
			<stop  offset="0" style="stop-color:#F2F2F2"/>
			<stop  offset="0.9717" style="stop-color:#262626"/>
		</linearGradient>
		<path class="st90" d="M297.75,527.58c-34.02-0.05-62.65-3.24-87.54-9.77c-21.88-5.74-41.2-14.2-59.05-25.87
			c-57.37-37.5-61.83-111.42-61.83-133.18c0-23.78,3.65-45.63,10.85-64.94c6.68-17.92,16.51-33.92,29.21-47.55
			c16.68-17.9,38.25-30.75,65.93-39.27c27.6-8.5,61.1-12.65,102.43-12.68c41.35,0.04,74.85,4.19,102.45,12.68
			c27.68,8.52,49.25,21.37,65.93,39.27c12.75,13.68,22.59,29.68,29.25,47.53c7.17,19.25,10.81,41.1,10.81,64.96
			c0,21.76-4.46,95.67-61.83,133.18c-17.85,11.67-37.17,20.13-59.05,25.87c-24.89,6.53-53.52,9.72-87.54,9.77H297.75L297.75,527.58z
			 M297.76,527.08c33.97-0.05,62.57-3.23,87.41-9.75c21.83-5.72,41.1-14.16,58.9-25.81c57.16-37.37,61.61-111.07,61.61-132.76
			c0-23.8-3.63-45.59-10.78-64.78c-6.63-17.8-16.44-33.74-29.14-47.37c-16.62-17.84-38.12-30.64-65.71-39.14
			c-27.55-8.48-61.01-12.62-102.3-12.66c-41.28,0.04-74.74,4.18-102.29,12.66c-27.6,8.5-49.09,21.3-65.71,39.14
			c-12.66,13.58-22.45,29.53-29.11,47.39c-7.18,19.26-10.82,41.04-10.82,64.76c0,21.7,4.44,95.4,61.61,132.76
			c17.81,11.64,37.08,20.08,58.9,25.81C235.18,523.85,263.77,527.04,297.76,527.08L297.76,527.08z"/>
		<path class="st9" d="M469.61,292.85c0.04-0.13-0.02-0.26-0.14-0.3c-0.13-0.05-0.26,0.02-0.31,0.14
			c-0.05,0.14-4.91,13.79-7.16,19.13c-2.26,5.34-7.5,15.06-7.55,15.16c-0.07,0.12-0.02,0.26,0.09,0.32
			c0.03,0.02,0.07,0.02,0.11,0.02c0.08,0,0.16-0.04,0.2-0.12c0,0,4.66-8.26,7.53-15.22C465.26,305.03,469.61,292.85,469.61,292.85z"
			/>
		<path class="st9" d="M125.95,292.85c-0.04-0.13,0.02-0.26,0.14-0.3c0.13-0.05,0.26,0.02,0.31,0.14
			c0.05,0.14,4.91,13.79,7.16,19.13c2.26,5.34,7.5,15.06,7.55,15.16c0.07,0.12,0.02,0.26-0.09,0.32c-0.03,0.02-0.07,0.02-0.11,0.02
			c-0.08,0-0.16-0.04-0.2-0.12c0,0-4.66-8.26-7.53-15.22C130.31,305.03,125.95,292.85,125.95,292.85z"/>
		<linearGradient id="SVGID_79_" gradientUnits="userSpaceOnUse" x1="182.2325" y1="485.5847" x2="417.7478" y2="485.5847">
			<stop  offset="0" style="stop-color:#000000"/>
			<stop  offset="0.2378" style="stop-color:#262626"/>
			<stop  offset="0.503" style="stop-color:#565656"/>
			<stop  offset="1" style="stop-color:#000000"/>
		</linearGradient>
		<path class="st91" d="M415.92,468.22c2.87-2.56,2.3-2.43-1.29,0.55c-5.1,4.23-9.49,7.77-18.37,12.69
			c-3.07,1.59-6.02,3.34-9.32,4.69c-29.24,11.94-49.03,13.23-83.88,14.31c-0.89,0.03-1.77,0.05-2.65,0.08
			c-0.88,0-1.77,0.01-2.65,0.01c-28.86,0-59.32-2.69-84.22-11.97c-3.34-1.24-6.69-2.88-9.81-4.38c-6.71-3.72-12.32-7.13-18.05-11.61
			c-3.67-2.88-4.65-3.23-1.71-0.76c-2.06-1.48-1.7-1.14,1.07,1.4c21.85,19.98,46.27,28,83.04,30.54
			c10.08,0.89,20.84,1.17,32.41,0.89c11.57-0.08,22.32-0.69,32.37-1.9c36.67-3.68,60.83-12.45,82.04-33.1
			C417.58,467.03,417.94,466.68,415.92,468.22z"/>
		<linearGradient id="SVGID_80_" gradientUnits="userSpaceOnUse" x1="297.7541" y1="516.8635" x2="297.7541" y2="288.8127">
			<stop  offset="0.1213" style="stop-color:#333333"/>
			<stop  offset="0.1777" style="stop-color:#3C3C3C"/>
			<stop  offset="0.2711" style="stop-color:#555555"/>
			<stop  offset="0.3899" style="stop-color:#7E7E7E"/>
			<stop  offset="0.5294" style="stop-color:#B7B7B7"/>
			<stop  offset="0.6698" style="stop-color:#F8F8F8"/>
			<stop  offset="0.7273" style="stop-color:#FFFFFF"/>
		</linearGradient>
		<path class="st92" d="M476.13,300.8c-1.18-3.46-2.5-6.9-3.92-10.2c-0.49-1.13-1.37-1.78-2.43-1.78c-0.53,0-1.08,0.18-1.58,0.52
			c-25.8,17.55-52.82,27.07-74.52,34.72c-19.46,6.86-37.84,13.34-49.94,22.06c-8.88,6.4-17.87,15.24-26.72,26.29
			c-6.36,7.93-13.01,18.97-19.27,31.89c-6.26-12.91-12.91-23.96-19.27-31.89c-8.85-11.04-17.84-19.89-26.72-26.29
			c-12.09-8.72-30.48-15.2-49.94-22.06c-21.71-7.65-48.72-17.17-74.52-34.72c-0.5-0.34-1.04-0.52-1.58-0.52
			c-1.06,0-1.94,0.65-2.43,1.78c-1.42,3.3-2.74,6.74-3.92,10.2c-6.31,18.46-9.38,39.11-9.38,63.14c0,25.29,5.41,87.79,55.5,121.89
			c15.51,10.56,33.02,18.12,53.53,23.11c21.55,5.24,47.08,7.84,78.04,7.93v0l1.39,0v0c30.96-0.09,56.5-2.68,78.04-7.93
			c20.51-4.99,38.02-12.55,53.53-23.11c50.09-34.1,55.5-96.6,55.5-121.89C485.52,339.91,482.45,319.26,476.13,300.8z M429.74,485.42
			c-15.46,10.52-32.91,18.06-53.36,23.04c-21.62,5.26-47.28,7.85-78.42,7.91v0l-0.2,0l-0.2,0v0c-31.14-0.06-56.8-2.65-78.42-7.91
			c-20.45-4.98-37.9-12.51-53.36-23.04c-49.9-33.97-55.28-96.27-55.28-121.49c0-23.97,3.06-44.57,9.36-62.98
			c1.18-3.45,2.5-6.87,3.91-10.17c0.4-0.94,1.12-1.48,1.97-1.48c0.43,0,0.88,0.15,1.3,0.43c25.86,17.58,52.9,27.12,74.64,34.78
			c19.43,6.85,37.78,13.32,49.81,21.99c9.51,6.86,18.47,16.03,26.62,26.2c7.14,8.91,13.93,20.74,19.66,32.67
			c5.73-11.93,12.52-23.77,19.66-32.67c8.15-10.17,17.11-19.34,26.62-26.2c12.03-8.68,30.38-15.14,49.81-21.99
			c21.73-7.66,48.78-17.2,74.64-34.78c0.41-0.28,0.86-0.43,1.3-0.43c0.85,0,1.57,0.54,1.97,1.48c1.41,3.29,2.73,6.71,3.91,10.17
			c6.3,18.41,9.36,39.01,9.36,62.98C485.02,389.14,479.63,451.45,429.74,485.42z"/>
		<path class="st93" d="M151.72,253.15c-0.15,0-0.3-0.06-0.41-0.16c-0.51-0.5-1.2-1.03-1.9-1.44c-0.18-0.11-0.29-0.28-0.32-0.49
			c-0.06-0.52-0.37-0.5,1.15-1.97c0.08-0.08,0.14-0.14,0.18-0.17c2.15-2.19,4.84-4.69,7.38-6.86c4.53-3.91,9.39-7.56,14.45-10.83
			c9.93-6.42,21.23-11.83,33.58-16.1c12.5-4.32,26.51-7.6,41.63-9.77c15.04-2.15,31.7-3.27,49.53-3.32v0l1.54,0l0,0
			c17.84,0.05,34.52,1.16,49.57,3.32c15.12,2.17,29.13,5.45,41.63,9.77c12.35,4.27,23.65,9.68,33.58,16.1
			c5.06,3.27,9.92,6.91,14.46,10.83c2.48,2.12,5.25,4.7,7.42,6.91c0.04,0.04,0.12,0.12,0.21,0.2c1.36,1.29,1.01,1.4,0.95,1.9
			c-0.02,0.21-0.14,0.39-0.32,0.5c-0.56,0.33-1.17,0.83-1.87,1.52c-0.11,0.11-0.26,0.17-0.41,0.17h0c-0.6,0-1.01-1.2-1.68-1.92
			c-30.56-30.37-77.75-45.16-144.28-45.22c-66.55,0.07-113.73,14.83-144.23,45.14C152.66,252.2,152.27,253.15,151.72,253.15z"/>
		<linearGradient id="SVGID_81_" gradientUnits="userSpaceOnUse" x1="129.8758" y1="443.4034" x2="478.8664" y2="316.3812">
			<stop  offset="0" style="stop-color:#4D4D4D"/>
			<stop  offset="0.2075" style="stop-color:#999999"/>
			<stop  offset="0.3726" style="stop-color:#F2F2F2"/>
			<stop  offset="0.6339" style="stop-color:#F0F0F0"/>
			<stop  offset="0.728" style="stop-color:#EAEAEA"/>
			<stop  offset="0.795" style="stop-color:#DEDEDE"/>
			<stop  offset="0.8493" style="stop-color:#CDCDCD"/>
			<stop  offset="0.8957" style="stop-color:#B7B7B7"/>
			<stop  offset="0.9361" style="stop-color:#9C9C9C"/>
			<stop  offset="0.9725" style="stop-color:#7D7D7D"/>
			<stop  offset="0.9764" style="stop-color:#797979"/>
			<stop  offset="0.9981" style="stop-color:#505050"/>
			<stop  offset="1" style="stop-color:#4D4D4D"/>
		</linearGradient>
		<path class="st94" d="M469.79,292.02l-0.24-0.56l-0.5,0.34c-8.89,6.02-18.81,11.43-34.24,18.69c-12.71,5.97-26.63,10.9-40.1,15.67
			c-19.24,6.81-37.42,13.25-49.15,21.74c-17.98,13.02-34.76,34.5-46.03,58.94c-0.81,1.77-1.18,2.22-1.8,2.22
			c-0.61,0-0.98-0.46-1.8-2.22c-11.27-24.44-28.04-45.92-46.03-58.94c-11.73-8.49-29.9-14.93-49.15-21.74
			c-13.47-4.77-27.39-9.7-40.1-15.67c-15.43-7.26-25.35-12.67-34.24-18.69l-0.5-0.34l-0.24,0.56
			c-8.68,20.46-12.89,43.92-12.89,71.73c0,24.87,5.29,86.32,54.27,119.7c30.56,20.83,70.82,30.17,130.52,30.28v0l0.15,0c0,0,0,0,0,0
			l0.15,0v0c59.7-0.12,99.96-9.46,130.52-30.28c48.98-33.38,54.27-94.83,54.27-119.7C482.69,335.94,478.47,312.47,469.79,292.02z
			 M427.86,482.63c-30.41,20.72-70.53,30.01-130.11,30.11c-59.58-0.1-99.7-9.39-130.11-30.11c-48.59-33.11-53.83-94.17-53.83-118.88
			c0-27.42,4.12-50.59,12.58-70.79c8.8,5.91,18.68,11.28,33.87,18.42c12.75,6,26.7,10.93,40.19,15.71
			c19.17,6.79,37.28,13.2,48.9,21.61c17.85,12.92,34.51,34.26,45.71,58.55c0.8,1.74,1.39,2.95,2.7,2.95c1.31,0,1.89-1.21,2.7-2.95
			c11.2-24.29,27.86-45.63,45.71-58.55c11.61-8.41,29.72-14.82,48.9-21.61c13.49-4.78,27.44-9.71,40.19-15.71
			c15.19-7.14,25.07-12.51,33.87-18.42c8.46,20.2,12.58,43.36,12.58,70.79C481.69,388.46,476.45,449.52,427.86,482.63z"/>
		<linearGradient id="SVGID_82_" gradientUnits="userSpaceOnUse" x1="297.754" y1="513.7349" x2="297.754" y2="291.4622">
			<stop  offset="0.3632" style="stop-color:#F2F2F2;stop-opacity:0"/>
			<stop  offset="0.4287" style="stop-color:#E0E0E0;stop-opacity:0.1956"/>
			<stop  offset="0.5605" style="stop-color:#B1B1B1;stop-opacity:0.5892"/>
			<stop  offset="0.6981" style="stop-color:#797979"/>
			<stop  offset="0.7897" style="stop-color:#515151"/>
			<stop  offset="0.8753" style="stop-color:#323232"/>
			<stop  offset="0.9482" style="stop-color:#202020"/>
			<stop  offset="1" style="stop-color:#1A1A1A"/>
		</linearGradient>
		<path class="st95" d="M469.79,292.02l-0.24-0.56l-0.5,0.34c-8.89,6.02-18.81,11.43-34.24,18.69c-12.71,5.97-26.63,10.9-40.1,15.67
			c-19.24,6.81-37.42,13.25-49.15,21.74c-17.98,13.02-34.76,34.5-46.03,58.94c-0.81,1.77-1.18,2.22-1.8,2.22
			c-0.61,0-0.98-0.46-1.8-2.22c-11.27-24.44-28.04-45.92-46.03-58.94c-11.73-8.49-29.9-14.93-49.15-21.74
			c-13.47-4.77-27.39-9.7-40.1-15.67c-15.43-7.26-25.35-12.67-34.24-18.69l-0.5-0.34l-0.24,0.56
			c-8.68,20.46-12.89,43.92-12.89,71.73c0,24.87,5.29,86.32,54.27,119.7c30.56,20.83,70.82,30.17,130.52,30.28v0l0.15,0c0,0,0,0,0,0
			l0.15,0v0c59.7-0.12,99.96-9.46,130.52-30.28c48.98-33.38,54.27-94.83,54.27-119.7C482.69,335.94,478.47,312.47,469.79,292.02z
			 M427.86,482.63c-30.41,20.72-70.53,30.01-130.11,30.11c-59.58-0.1-99.7-9.39-130.11-30.11c-48.59-33.11-53.83-94.17-53.83-118.88
			c0-27.42,4.12-50.59,12.58-70.79c8.8,5.91,18.68,11.28,33.87,18.42c12.75,6,26.7,10.93,40.19,15.71
			c19.17,6.79,37.28,13.2,48.9,21.61c17.85,12.92,34.51,34.26,45.71,58.55c0.8,1.74,1.39,2.95,2.7,2.95c1.31,0,1.89-1.21,2.7-2.95
			c11.2-24.29,27.86-45.63,45.71-58.55c11.61-8.41,29.72-14.82,48.9-21.61c13.49-4.78,27.44-9.71,40.19-15.71
			c15.19-7.14,25.07-12.51,33.87-18.42c8.46,20.2,12.58,43.36,12.58,70.79C481.69,388.46,476.45,449.52,427.86,482.63z"/>
		<path class="st17" d="M475.66,300.01c-1.18-3.47-2.5-6.9-3.91-10.21c-0.4-0.95-1.12-1.49-1.97-1.49c-0.43,0-0.88,0.15-1.3,0.43
			c-25.86,17.66-52.9,27.24-74.64,34.93c-19.43,6.88-37.78,13.37-49.81,22.09c-9.51,6.89-18.47,16.1-26.62,26.31
			c-7.14,8.94-13.93,20.83-19.66,32.81c-5.73-11.99-12.52-23.87-19.66-32.81c-8.15-10.21-17.11-19.42-26.62-26.31
			c-12.03-8.71-30.38-15.21-49.81-22.09c-21.73-7.69-48.78-17.27-74.64-34.93c-0.41-0.28-0.86-0.43-1.3-0.43
			c-0.85,0-1.57,0.54-1.97,1.49c-1.41,3.31-2.73,6.74-3.91,10.21c-6.3,18.49-9.36,39.18-9.36,63.25c0,25.32,5.39,87.9,55.28,122.01
			c15.46,10.57,32.92,18.14,53.36,23.14c21.62,5.28,47.28,7.88,78.42,7.95v0l0.2,0l0.2,0v0c31.14-0.06,56.8-2.66,78.42-7.95
			c20.45-5,37.9-12.57,53.36-23.14c49.9-34.12,55.28-96.69,55.28-122.01C485.02,339.19,481.96,318.5,475.66,300.01z M428.39,483.41
			c-30.57,20.84-70.86,30.17-130.64,30.27c-59.78-0.1-100.07-9.44-130.64-30.27c-48.96-33.37-54.24-94.8-54.24-119.66
			c0-28.02,4.29-51.65,13.1-72.21c8.99,6.13,19.05,11.64,34.69,18.99c12.71,5.97,26.63,10.91,40.1,15.67
			c19.24,6.81,37.41,13.25,49.13,21.73c17.97,13.01,34.74,34.49,46.01,58.92c0.74,1.62,1.11,2.14,1.64,2.23v0.02h0.2l0,0l0,0h0.2
			v-0.02c0.53-0.09,0.9-0.62,1.64-2.23c11.27-24.43,28.04-45.91,46.01-58.92c11.72-8.49,29.89-14.92,49.14-21.73
			c13.47-4.77,27.4-9.7,40.1-15.67c15.64-7.36,25.7-12.86,34.69-18.99c8.82,20.56,13.1,44.19,13.1,72.21
			C482.64,388.61,477.35,450.04,428.39,483.41z"/>
		<path class="st17" d="M462.41,244.27c-2.72,1.18-11.62,4.14-15.34,5.37l-0.1,0.03c-0.24,0.08-0.5,0.12-0.76,0.12
			c-0.58,0-1.09-0.19-1.4-0.51c-2.16-2.2-4.9-4.75-7.39-6.88c-4.51-3.9-9.36-7.53-14.4-10.79c-9.9-6.39-21.16-11.79-33.47-16.05
			c-12.47-4.31-26.45-7.59-41.54-9.75c-15.17-2.17-31.98-3.29-49.97-3.31l0,0l-0.27,0c0,0-0.01,0-0.01,0h-0.3v0
			c-17.98,0.03-34.79,1.14-49.95,3.31c-15.09,2.16-29.07,5.44-41.54,9.75c-12.31,4.25-23.57,9.65-33.47,16.05
			c-5.04,3.26-9.89,6.89-14.4,10.79c-2.53,2.16-5.21,4.65-7.35,6.83c-0.32,0.32-0.99,0.65-1.57,0.65c-0.26,0-0.46-0.06-0.7-0.14
			l-0.11-0.04c-3.72-1.23-12.5-4.15-15.21-5.32l-0.18,0.21c0.85,0.37,2.52,1.28,4.5,2.17l0.02,0.01c3.99,1.79,8.96,4.02,9.91,4.34
			c0.44,0.14,0.92,0.37,1.43,0.67c0.73,0.43,1.45,0.98,1.99,1.51c0.21,0.2,0.37,0.39,0.5,0.56c0.47,0.63,10.11,13.57,11.99,16.14
			l0.17-0.23c-0.08-0.12-7.99-11.9-10.42-15.4c-0.73-1.05-0.61-2.74,0.09-3.5c30.6-30.41,77.89-45.22,144.59-45.29
			c66.68,0.07,114.03,14.95,144.64,45.37c0.71,0.76,0.73,2.38,0,3.43c-2.25,3.25-9.07,13.36-10.4,15.34l0.2,0.27l0.16-0.22
			c1.88-2.57,11.24-15.37,11.71-16c0.12-0.17,0.31-0.37,0.51-0.57c0.54-0.53,1.24-1.16,1.97-1.59c0.51-0.3,1.19-0.7,1.63-0.84
			c0.95-0.32,5.81-2.52,9.8-4.31c2-0.9,3.9-1.56,4.75-1.93L462.41,244.27z"/>
		<path class="st15" d="M199.67,349.87c22.55,6.46,40.48,14.98,54.82,26.03c8.36,6.44,15.62,13.89,21.58,22.13
			c6.45,8.92,11.62,19.08,15.35,30.21c1.87,5.58,3.59,7.66,6.33,7.66l0,0v0c2.74,0,4.46-2.08,6.33-7.66
			c3.73-11.13,8.9-21.29,15.35-30.21c5.97-8.24,13.23-15.69,21.58-22.13c14.34-11.06,32.28-19.57,54.82-26.03
			c1.25-0.36,2.5-0.71,3.76-1.07c16.75-4.77,34.94-9.95,54.53-20.7c1.68,10.65,2.52,22.07,2.52,34.31
			c0,12.48-2.26,76.45-46.82,110.17c-25.43,19.25-58.95,27.49-112.06,27.58l0,0l-0.02,0c-53.2-0.08-86.72-8.33-112.08-27.58
			c-44.56-33.82-46.82-97.71-46.82-110.17c0-12.24,0.84-23.66,2.52-34.31c19.59,10.74,37.78,15.93,54.53,20.7
			C197.16,349.16,198.42,349.52,199.67,349.87z"/>
		<path class="st15" d="M297.76,217.58c61.69,0.06,102.46,14.46,128.31,45.32c4.55,5.43,8.58,11.25,12.1,17.47
			c-3.22,2.04-6.57,4.01-10.07,5.94c-15.94,8.77-32.85,15.43-49.21,21.87c-2.02,0.79-4.02,1.58-6.02,2.38
			c-31.5,12.48-55.25,33.17-70.59,61.49c-1.81,3.35-3.25,4.91-4.52,4.91v0l0,0c-1.27,0-2.71-1.56-4.52-4.91
			c-15.33-28.32-39.08-49.01-70.59-61.49c-2-0.79-4-1.58-6.02-2.38c-16.36-6.44-33.27-13.1-49.21-21.87
			c-3.5-1.93-6.85-3.9-10.07-5.94c3.52-6.23,7.55-12.05,12.1-17.47C195.29,232.04,236.07,217.64,297.76,217.58z"/>
		<g>
			<path class="st96" d="M438.41,280.8c0.14-0.09,0.28-0.18,0.42-0.27c-0.08-0.14-0.16-0.29-0.24-0.43
				c-3.53-6.25-7.58-12.08-12.14-17.52c-25.95-30.97-66.84-45.43-128.69-45.49c-61.86,0.06-102.75,14.52-128.7,45.49
				c-4.56,5.44-8.61,11.28-12.14,17.53c-0.08,0.14-0.16,0.29-0.24,0.43c0.14,0.09,0.28,0.18,0.42,0.27
				c3.22,2.04,6.58,4.01,10.08,5.94c15.97,8.79,32.9,15.45,49.27,21.9l0.07,0.03c1.99,0.78,3.98,1.57,5.95,2.35
				c31.39,12.44,55.05,33.05,70.33,61.26c1.94,3.58,3.47,5.17,4.96,5.17s3.02-1.59,4.96-5.17c15.28-28.21,38.94-48.83,70.33-61.26
				c2-0.79,4-1.58,6.02-2.38c16.37-6.45,33.3-13.11,49.27-21.9C431.83,284.81,435.19,282.84,438.41,280.8z M438.17,280.37
				c-3.22,2.04-6.57,4.01-10.07,5.94c-15.94,8.77-32.85,15.43-49.21,21.87c-2.02,0.79-4.02,1.58-6.02,2.38
				c-31.5,12.48-55.25,33.17-70.59,61.49c-1.81,3.35-3.25,4.91-4.52,4.91v0l0,0c-1.27,0-2.71-1.56-4.52-4.91
				c-15.33-28.32-39.08-49.01-70.59-61.49c-2-0.79-4-1.58-6.02-2.38c-16.36-6.44-33.27-13.1-49.21-21.87
				c-3.5-1.93-6.85-3.9-10.07-5.94c3.52-6.23,7.55-12.05,12.1-17.47c25.85-30.85,66.63-45.25,128.32-45.32
				c61.69,0.06,102.46,14.46,128.31,45.32C430.62,268.32,434.65,274.14,438.17,280.37z"/>
			<path class="st96" d="M138.36,362.41c0,12.51,2.27,76.61,47.01,110.57c25.46,19.32,59.07,27.6,112.38,27.68l0,0l0.03,0
				c53.23-0.08,86.83-8.36,112.36-27.68c44.75-33.86,47.01-98.04,47.01-110.57c0-12.34-0.85-23.84-2.55-34.57
				c-0.03-0.17-0.05-0.35-0.08-0.52c-0.15,0.09-0.31,0.17-0.46,0.25c-19.61,10.78-37.82,15.97-54.58,20.74
				c-1.26,0.36-2.52,0.72-3.76,1.07c-22.61,6.48-40.59,15.02-54.99,26.12c-8.39,6.47-15.69,13.95-21.68,22.23
				c-6.48,8.96-11.67,19.17-15.42,30.34c-1.79,5.34-3.38,7.32-5.86,7.32c-2.48,0-4.07-1.98-5.86-7.32
				c-3.75-11.18-8.94-21.38-15.42-30.34c-5.99-8.28-13.29-15.76-21.68-22.23c-14.39-11.09-32.38-19.64-54.99-26.12
				c-1.25-0.36-2.5-0.71-3.76-1.07c-16.76-4.77-34.97-9.96-54.58-20.74c-0.15-0.08-0.31-0.17-0.46-0.25
				c-0.03,0.17-0.06,0.35-0.08,0.52C139.2,338.57,138.36,350.07,138.36,362.41z M138.85,362.41c0-12.24,0.84-23.66,2.52-34.31
				c19.59,10.74,37.78,15.93,54.53,20.7c1.26,0.36,2.52,0.72,3.76,1.07c22.55,6.46,40.48,14.98,54.82,26.03
				c8.36,6.44,15.62,13.89,21.58,22.13c6.45,8.92,11.62,19.08,15.35,30.21c1.87,5.58,3.59,7.66,6.33,7.66l0,0v0
				c2.74,0,4.46-2.08,6.33-7.66c3.73-11.13,8.9-21.29,15.35-30.21c5.97-8.24,13.23-15.69,21.58-22.13
				c14.34-11.06,32.28-19.57,54.82-26.03c1.25-0.36,2.5-0.71,3.76-1.07c16.75-4.77,34.94-9.95,54.53-20.7
				c1.68,10.65,2.52,22.07,2.52,34.31c0,12.48-2.26,76.45-46.82,110.17c-25.43,19.25-58.95,27.49-112.06,27.58l0,0l-0.02,0
				c-53.2-0.08-86.72-8.33-112.08-27.58C141.11,438.77,138.85,374.88,138.85,362.41z"/>
		</g>
		
			<linearGradient id="SVGID_83_" gradientUnits="userSpaceOnUse" x1="-391.713" y1="196.7929" x2="-203.6223" y2="522.5757" gradientTransform="matrix(-1 0 0 1 1.000000e-04 0)">
			<stop  offset="0" style="stop-color:#E6E6E6"/>
			<stop  offset="1" style="stop-color:#333333"/>
		</linearGradient>
		<path class="st97" d="M297.76,527.58L297.76,527.58c-34.03-0.05-62.66-3.24-87.55-9.77c-21.88-5.74-41.2-14.2-59.05-25.87
			c-57.37-37.5-61.83-111.42-61.83-133.18c0-23.86,3.64-45.71,10.81-64.96c6.66-17.86,16.5-33.85,29.25-47.53
			c16.68-17.9,38.25-30.75,65.93-39.27c27.6-8.5,61.1-12.65,102.45-12.68c41.33,0.04,74.84,4.19,102.43,12.68
			c27.68,8.52,49.25,21.37,65.93,39.27c12.7,13.63,22.53,29.63,29.21,47.55c7.2,19.31,10.85,41.16,10.85,64.94
			c0,21.76-4.46,95.67-61.83,133.18c-17.85,11.67-37.17,20.13-59.05,25.87C360.41,524.34,331.78,527.53,297.76,527.58L297.76,527.58
			z M297.76,527.08c33.98-0.05,62.57-3.23,87.42-9.75c21.83-5.72,41.1-14.16,58.9-25.81c57.16-37.37,61.61-111.07,61.61-132.76
			c0-23.72-3.64-45.51-10.82-64.76c-6.66-17.86-16.45-33.81-29.11-47.39c-16.62-17.84-38.12-30.64-65.71-39.14
			c-27.55-8.48-61.01-12.62-102.29-12.66c-41.29,0.04-74.75,4.18-102.3,12.66c-27.6,8.5-49.09,21.3-65.71,39.14
			c-12.7,13.64-22.51,29.57-29.14,47.37c-7.15,19.19-10.78,40.99-10.78,64.78c0,21.7,4.44,95.4,61.61,132.76
			c17.81,11.64,37.08,20.08,58.9,25.81C235.18,523.85,263.77,527.04,297.76,527.08L297.76,527.08z"/>
	</g>
</g>
</svg>
